<svg width="1512" height="2471" viewBox="0 0 1512 2471" fill="none" xmlns="http://www.w3.org/2000/svg">
<g clip-path="url(#clip0_63_3)">
<rect width="1512" height="2471" fill="#FFC700"/>
<rect width="1512" height="2471" fill="#FFC700"/>
<path d="M238.779 1976C238.78 2061.14 238.779 2065.42 306.006 2065.58C311.41 2065.57 317.249 2065.58 323.558 2065.58C317.249 2065.58 311.41 2065.59 306.006 2065.58C238.779 2065.75 238.78 2070.03 238.779 2155.17C238.778 2070.03 238.779 2065.75 171.552 2065.58C166.148 2065.59 160.309 2065.58 154 2065.58C160.309 2065.58 166.148 2065.57 171.552 2065.58C238.779 2065.42 238.778 2061.14 238.779 1976Z" fill="#7C64C2"/>
<path d="M238.779 1976C238.78 2067.99 238.779 2065.58 323.558 2065.58C238.779 2065.58 238.78 2063.19 238.779 2155.17C238.778 2063.19 238.779 2065.58 154 2065.58C238.779 2065.58 238.778 2067.99 238.779 1976Z" stroke="black" stroke-width="5"/>
<path d="M549.191 1070.48C549.192 1219.23 549.191 1226.69 666.638 1226.98C676.08 1226.96 686.281 1226.98 697.303 1226.98C686.281 1226.98 676.08 1227 666.638 1226.98C549.191 1227.27 549.192 1234.75 549.191 1383.5C549.19 1234.75 549.191 1227.27 431.743 1226.98C422.301 1227 412.1 1226.98 401.079 1226.98C412.1 1226.98 422.301 1226.96 431.743 1226.98C549.191 1226.69 549.19 1219.23 549.191 1070.48Z" fill="#669CF7"/>
<path d="M549.191 1070.48C549.192 1231.18 549.191 1226.98 697.303 1226.98C549.191 1226.98 549.192 1222.8 549.191 1383.5C549.19 1222.8 549.191 1226.98 401.079 1226.98C549.191 1226.98 549.19 1231.18 549.191 1070.48Z" stroke="black" stroke-width="5"/>
<path d="M707.899 860.638C707.899 917.381 707.899 920.229 752.702 920.338C756.304 920.329 760.195 920.338 764.4 920.338C760.195 920.338 756.304 920.347 752.702 920.338C707.899 920.449 707.899 923.304 707.899 980.047C707.898 923.304 707.899 920.449 663.096 920.338C659.494 920.347 655.602 920.338 651.398 920.338C655.602 920.338 659.494 920.329 663.096 920.338C707.899 920.229 707.898 917.381 707.899 860.638Z" fill="#F14E1C"/>
<path d="M707.899 860.638C707.899 921.942 707.899 920.338 764.4 920.338C707.899 920.338 707.899 918.742 707.899 980.047C707.898 918.742 707.899 920.338 651.398 920.338C707.899 920.338 707.898 921.942 707.899 860.638Z" stroke="black" stroke-width="5"/>
<path d="M50.5008 1911C50.5012 1967.74 50.5009 1970.59 95.304 1970.7C98.9059 1970.69 102.797 1970.7 107.002 1970.7C102.797 1970.7 98.9059 1970.71 95.304 1970.7C50.5009 1970.81 50.5012 1973.67 50.5008 2030.41C50.5004 1973.67 50.5007 1970.81 5.69761 1970.7C2.09574 1970.71 -1.79571 1970.7 -6 1970.7C-1.79571 1970.7 2.09573 1970.69 5.69761 1970.7C50.5007 1970.59 50.5004 1967.74 50.5008 1911Z" fill="#F14E1C"/>
<path d="M50.5008 1911C50.5013 1972.3 50.5008 1970.7 107.002 1970.7C50.5008 1970.7 50.5013 1969.1 50.5008 2030.41C50.5003 1969.1 50.5008 1970.7 -6 1970.7C50.5008 1970.7 50.5003 1972.3 50.5008 1911Z" stroke="black" stroke-width="5"/>
<path d="M1376.5 1458C1376.5 1514.74 1376.5 1517.59 1421.3 1517.7C1424.91 1517.69 1428.8 1517.7 1433 1517.7C1428.8 1517.7 1424.91 1517.71 1421.3 1517.7C1376.5 1517.81 1376.5 1520.67 1376.5 1577.41C1376.5 1520.67 1376.5 1517.81 1331.7 1517.7C1328.1 1517.71 1324.2 1517.7 1320 1517.7C1324.2 1517.7 1328.1 1517.69 1331.7 1517.7C1376.5 1517.59 1376.5 1514.74 1376.5 1458Z" fill="#7C64C2"/>
<path d="M1376.5 1458C1376.5 1519.3 1376.5 1517.7 1433 1517.7C1376.5 1517.7 1376.5 1516.1 1376.5 1577.41C1376.5 1516.1 1376.5 1517.7 1320 1517.7C1376.5 1517.7 1376.5 1519.3 1376.5 1458Z" stroke="black" stroke-width="5"/>
<path d="M907.991 -145.171C970.585 -66.6439 1025.7 18.3885 1079.01 103.362C1161.99 235.617 1261.02 380.82 1290.92 536.785C1306.63 618.671 1303.04 746.044 1227.28 800.962C1167.8 844.078 1112.8 776.217 1092.7 725.229C1083.63 702.215 1061.9 636.544 1093.95 619.629C1124.86 603.312 1163.66 655.338 1174.3 675.273C1203.15 729.305 1204.8 798.939 1185.15 856.251C1153.6 948.274 1066.5 1009.69 992.258 1065.85C909.837 1128.2 817.178 1186.6 772.525 1284.16C730.593 1375.78 733.708 1467.14 809.502 1538.38C866.035 1591.53 965.48 1630.64 1040.26 1594.56C1101.29 1565.11 1134.59 1481.48 1087.01 1425.67C1077.71 1414.76 1042.35 1389.34 1030.12 1410.74C1022.55 1424 1027.35 1447.78 1028.7 1461.41C1031.89 1493.55 1037.95 1525.02 1054.66 1553.14C1093.96 1619.27 1184.2 1657.32 1252.7 1682.21C1399.17 1735.41 1555.58 1710.4 1704.79 1685.23" stroke="#689BF7" stroke-width="99" stroke-linecap="round"/>
<path d="M-33.8215 176.962C112.198 195.12 258.01 150.079 384.312 79.0063C428.107 54.3615 477.699 25.9914 505.912 -17.3492C517.002 -34.3862 531.448 -67.4495 510.178 -83.3048C420.553 -150.117 341.673 5.8985 351.601 77.0507C363.896 165.172 477.843 128.499 532.045 117.94C608.499 103.046 753.86 71.7642 780.401 179.451C796.333 244.095 765.595 318.845 733.467 373.228C664.265 490.368 541.75 565.533 428.934 634.74C325.316 698.303 220.794 747.804 103.779 781.584C40.1797 799.944 -16.2426 815.623 -82.5327 818.74C-166.947 822.708 -227.224 789.767 -305.822 768.962" stroke="#5852FE" stroke-width="99" stroke-linecap="round"/>
<path d="M-152 1466.13C-68.7614 1395.38 54.7321 1329.64 166.933 1328.88C284.899 1328.09 423.405 1397.75 467.378 1512.35C498.701 1593.99 482.496 1694.81 422.933 1759.11C372.008 1814.08 264.108 1867.58 212.8 1781.86C181.152 1728.99 206.096 1662.4 269.156 1654.57C339.926 1645.79 386.68 1703.99 425.244 1753.95C459.976 1798.94 491.621 1847.21 531.733 1887.82C582.678 1939.39 642.241 1978.11 707.911 2008.35C803.506 2052.37 906.03 2078.26 1007.82 2103.28C1139.19 2135.58 1271.44 2165.01 1403.2 2195.73" stroke="#5852FE" stroke-width="99" stroke-linecap="round"/>
<path d="M907.991 -145.171C970.585 -66.6439 1025.7 18.3885 1079.01 103.362C1161.99 235.617 1261.02 380.82 1290.92 536.785C1306.63 618.671 1303.04 746.044 1227.28 800.962C1167.8 844.078 1112.8 776.217 1092.7 725.229C1083.63 702.215 1061.9 636.544 1093.95 619.629C1124.86 603.312 1163.66 655.338 1174.3 675.273C1203.15 729.305 1204.8 798.939 1185.15 856.251C1153.6 948.274 1066.5 1009.69 992.258 1065.85C909.837 1128.2 817.178 1186.6 772.525 1284.16C730.593 1375.78 733.708 1467.14 809.502 1538.38C866.035 1591.53 965.48 1630.64 1040.26 1594.56C1101.29 1565.11 1134.59 1481.48 1087.01 1425.67C1077.71 1414.76 1042.35 1389.34 1030.12 1410.74C1022.55 1424 1027.35 1447.78 1028.7 1461.41C1031.89 1493.55 1037.95 1525.02 1054.66 1553.14C1093.96 1619.27 1184.2 1657.32 1252.7 1682.21C1399.17 1735.41 1555.58 1710.4 1704.79 1685.23" stroke="black" stroke-width="5" stroke-linecap="round"/>
<path d="M-33.8215 176.962C112.198 195.12 258.01 150.079 384.312 79.0063C428.107 54.3615 477.699 25.9914 505.912 -17.3492C517.002 -34.3862 531.448 -67.4495 510.178 -83.3048C420.553 -150.117 341.673 5.8985 351.601 77.0507C363.896 165.172 477.843 128.499 532.045 117.94C608.499 103.046 753.86 71.7642 780.401 179.451C796.333 244.095 765.595 318.845 733.467 373.228C664.265 490.368 541.75 565.533 428.934 634.74C325.316 698.303 220.794 747.804 103.779 781.584C40.1797 799.944 -16.2426 815.623 -82.5327 818.74C-166.947 822.708 -227.224 789.767 -305.822 768.962" stroke="black" stroke-width="5" stroke-linecap="round"/>
<path d="M-152 1466.13C-68.7614 1395.38 54.7321 1329.64 166.933 1328.88C284.899 1328.09 423.405 1397.75 467.378 1512.35C498.701 1593.99 482.496 1694.81 422.933 1759.11C372.008 1814.08 264.108 1867.58 212.8 1781.86C181.152 1728.99 206.096 1662.4 269.156 1654.57C339.926 1645.79 386.68 1703.99 425.244 1753.95C459.976 1798.94 491.621 1847.21 531.733 1887.82C582.678 1939.39 642.241 1978.11 707.911 2008.35C803.506 2052.37 906.03 2078.26 1007.82 2103.28C1139.19 2135.58 1271.44 2165.01 1403.2 2195.73" stroke="black" stroke-width="5" stroke-linecap="round"/>
<path d="M239.459 931.539C239.459 1016.68 239.459 1020.96 306.685 1021.12C312.09 1021.11 317.929 1021.12 324.238 1021.12C317.929 1021.12 312.09 1021.13 306.685 1021.12C239.459 1021.29 239.459 1025.57 239.459 1110.71C239.458 1025.57 239.459 1021.29 172.232 1021.12C166.827 1021.13 160.988 1021.12 154.68 1021.12C160.988 1021.12 166.827 1021.11 172.232 1021.12C239.459 1020.96 239.458 1016.68 239.459 931.539Z" fill="#7C64C2"/>
<path d="M239.459 931.539C239.459 1023.53 239.459 1021.12 324.238 1021.12C239.459 1021.12 239.459 1018.72 239.459 1110.71C239.458 1018.72 239.459 1021.12 154.68 1021.12C239.459 1021.12 239.458 1023.53 239.459 931.539Z" stroke="black" stroke-width="5"/>
<path d="M1461.78 47C1461.78 132.142 1461.78 136.416 1529.01 136.58C1534.41 136.567 1540.25 136.58 1546.56 136.58C1540.25 136.58 1534.41 136.594 1529.01 136.58C1461.78 136.747 1461.78 141.031 1461.78 226.173C1461.78 141.031 1461.78 136.747 1394.55 136.58C1389.15 136.594 1383.31 136.58 1377 136.58C1383.31 136.58 1389.15 136.567 1394.55 136.58C1461.78 136.416 1461.78 132.142 1461.78 47Z" fill="#64BDC2"/>
<path d="M1461.78 47C1461.78 138.987 1461.78 136.58 1546.56 136.58C1461.78 136.58 1461.78 134.186 1461.78 226.173C1461.78 134.186 1461.78 136.58 1377 136.58C1461.78 136.58 1461.78 138.987 1461.78 47Z" stroke="black" stroke-width="5"/>
</g>
<defs>
<clipPath id="clip0_63_3">
<rect width="1512" height="2471" fill="white"/>
</clipPath>
</defs>
</svg>
