<svg width="1512" height="2471" viewBox="0 0 1512 2471" fill="none" xmlns="http://www.w3.org/2000/svg">
<path d="M1065.55 251.861C1076.76 229.505 1103.97 220.472 1126.33 231.684L1126.39 231.717L1126.46 231.749L1126.52 231.782L1126.59 231.815L1126.66 231.849L1126.72 231.882L1126.79 231.916L1126.86 231.95L1126.93 231.984L1126.99 232.019L1127.06 232.053L1127.13 232.088L1127.2 232.123L1127.27 232.159L1127.34 232.194L1127.42 232.23L1127.49 232.266L1127.56 232.303L1127.63 232.339L1127.71 232.376L1127.78 232.413L1127.85 232.45L1127.93 232.487L1128 232.525L1128.08 232.563L1128.15 232.601L1128.23 232.639L1128.31 232.678L1128.38 232.716L1128.46 232.755L1128.54 232.794L1128.62 232.833L1128.7 232.873L1128.78 232.913L1128.86 232.953L1128.94 232.993L1129.02 233.033L1129.1 233.073L1129.18 233.114L1129.26 233.155L1129.34 233.196L1129.42 233.237L1129.51 233.279L1129.59 233.321L1129.67 233.363L1129.76 233.405L1129.84 233.447L1129.93 233.489L1130.01 233.532L1130.1 233.575L1130.18 233.618L1130.27 233.661L1130.35 233.704L1130.44 233.748L1130.53 233.791L1130.62 233.835L1130.7 233.879L1130.79 233.924L1130.88 233.968L1130.97 234.013L1131.06 234.057L1131.15 234.102L1131.24 234.148L1131.33 234.193L1131.42 234.238L1131.51 234.284L1131.6 234.33L1131.69 234.376L1131.79 234.422L1131.88 234.468L1131.97 234.514L1132.06 234.561L1132.16 234.608L1132.25 234.655L1132.34 234.702L1132.44 234.749L1132.53 234.796L1132.63 234.844L1132.72 234.891L1132.82 234.939L1132.91 234.987L1133.01 235.035L1133.1 235.083L1133.2 235.132L1133.3 235.18L1133.4 235.229L1133.49 235.278L1133.59 235.327L1133.69 235.376L1133.79 235.425L1133.88 235.475L1133.98 235.524L1134.08 235.574L1134.18 235.623L1134.28 235.673L1134.38 235.723L1134.48 235.774L1134.58 235.824L1134.68 235.874L1134.78 235.925L1134.88 235.975L1134.98 236.026L1135.09 236.077L1135.19 236.128L1135.29 236.179L1135.39 236.231L1135.49 236.282L1135.6 236.333L1135.7 236.385L1135.8 236.437L1135.91 236.489L1136.01 236.541L1136.11 236.593L1136.22 236.645L1136.32 236.697L1136.43 236.749L1136.53 236.802L1136.64 236.855L1136.74 236.907L1136.85 236.96L1136.95 237.013L1137.06 237.066L1137.16 237.119L1137.27 237.172L1137.38 237.225L1137.48 237.279L1137.59 237.332L1137.7 237.386L1137.8 237.439L1137.91 237.493L1138.02 237.547L1138.12 237.601L1138.23 237.655L1138.34 237.709L1138.45 237.763L1138.56 237.817L1138.66 237.872L1138.77 237.926L1138.88 237.981L1138.99 238.035L1139.1 238.09L1139.21 238.145L1139.32 238.199L1139.43 238.254L1139.54 238.309L1139.65 238.364L1139.76 238.419L1139.87 238.474L1139.98 238.53L1140.09 238.585L1140.2 238.64L1140.31 238.696L1140.42 238.751L1140.53 238.807L1140.64 238.862L1140.75 238.918L1140.86 238.974L1140.97 239.029L1141.08 239.085L1141.19 239.141L1141.31 239.197L1141.42 239.253L1141.53 239.309L1141.64 239.365L1141.75 239.421L1141.86 239.477L1141.98 239.533L1142.09 239.59L1142.2 239.646L1142.31 239.702L1142.43 239.759L1142.54 239.815L1142.65 239.871L1142.76 239.928L1142.88 239.984L1142.99 240.041L1143.1 240.098L1143.21 240.154L1143.33 240.211L1143.44 240.267L1143.55 240.324L1143.67 240.381L1143.78 240.438L1143.89 240.494L1144.01 240.551L1144.12 240.608L1144.23 240.665L1144.35 240.722L1144.46 240.779L1144.57 240.836L1144.69 240.892L1144.8 240.949L1144.91 241.006L1145.03 241.063L1145.14 241.12L1145.25 241.177L1145.37 241.234L1145.48 241.291L1145.6 241.348L1145.71 241.405L1145.82 241.462L1145.94 241.519L1146.05 241.576L1146.16 241.633L1146.28 241.69L1146.39 241.747L1146.5 241.804L1146.62 241.861L1146.73 241.918L1146.85 241.975L1146.96 242.032L1147.07 242.089L1147.19 242.146L1147.3 242.203L1147.41 242.26L1147.53 242.317L1147.64 242.374L1147.75 242.431L1147.87 242.488L1147.98 242.545L1148.09 242.602L1148.21 242.658L1148.32 242.715L1148.43 242.772L1148.55 242.829L1148.66 242.885L1148.77 242.942L1148.89 242.999L1149 243.056L1149.11 243.112L1149.23 243.169L1149.34 243.225L1149.45 243.282L1149.56 243.338L1149.68 243.395L1149.79 243.451L1149.9 243.507L1150.01 243.564L1150.13 243.62L1150.24 243.676L1150.35 243.733L1150.46 243.789L1150.57 243.845L1150.68 243.901L1150.8 243.957L1150.91 244.013L1151.02 244.069L1151.13 244.125L1151.24 244.18L1151.35 244.236L1151.46 244.292L1151.58 244.347L1151.69 244.403L1151.8 244.459L1151.91 244.514L1152.02 244.569L1152.13 244.625L1152.24 244.68L1152.35 244.735L1152.46 244.79L1152.57 244.845L1152.68 244.9L1152.79 244.955L1152.9 245.01L1153.01 245.065L1153.12 245.12L1153.22 245.174L1153.33 245.229L1153.44 245.283L1153.55 245.338L1153.66 245.392L1153.77 245.446L1153.87 245.501L1153.98 245.555L1154.09 245.609L1154.2 245.663L1154.3 245.716L1154.41 245.77L1154.52 245.824L1154.63 245.877L1154.73 245.931L1154.84 245.984L1154.94 246.038L1155.05 246.091L1155.16 246.144L1155.26 246.197L1155.37 246.25L1155.47 246.302L1155.58 246.355L1155.68 246.408L1155.79 246.46L1155.89 246.513L1156 246.565L1156.1 246.617L1156.2 246.669L1156.31 246.721L1156.41 246.773L1156.51 246.825L1156.62 246.876L1156.72 246.928L1156.82 246.979L1156.92 247.03L1157.03 247.082L1157.13 247.133L1157.23 247.183L1157.33 247.234L1157.43 247.285L1157.53 247.335L1157.63 247.386L1157.73 247.436L1157.83 247.486L1157.93 247.536L1158.03 247.586L1158.13 247.636L1158.23 247.686L1158.33 247.735L1158.43 247.785L1158.53 247.834L1158.62 247.883L1158.72 247.932L1158.82 247.981L1158.92 248.029L1159.01 248.078L1159.11 248.126L1159.21 248.174L1159.3 248.223L1159.4 248.271L1159.49 248.318L1159.59 248.366L1159.68 248.413L1159.78 248.461L1159.87 248.508L1159.96 248.555L1160.06 248.602L1160.15 248.649L1160.24 248.695L1160.34 248.742L1160.43 248.788L1160.52 248.834L1160.61 248.88L1160.7 248.926L1160.79 248.971L1160.89 249.017L1160.98 249.062L1161.07 249.107L1161.15 249.152L1161.24 249.197L1161.33 249.242L1161.42 249.286L1161.51 249.33L1161.6 249.374L1161.69 249.418L1161.77 249.462L1161.86 249.505L1161.95 249.549L1162.03 249.592L1162.12 249.635L1162.2 249.678L1162.29 249.72L1162.37 249.763L1162.46 249.805L1162.54 249.847L1162.62 249.889L1162.71 249.931L1162.79 249.972L1162.87 250.014L1162.95 250.055L1163.04 250.096L1163.12 250.136L1163.2 250.177L1163.28 250.217L1163.36 250.257L1163.44 250.297L1163.52 250.337L1163.6 250.376L1163.67 250.416L1163.75 250.455L1163.83 250.494L1163.91 250.532L1163.98 250.571L1164.06 250.609L1164.14 250.647L1164.21 250.685L1164.29 250.722L1164.36 250.76L1164.43 250.797L1164.51 250.834L1164.58 250.871L1164.65 250.907L1164.73 250.943L1164.8 250.98L1164.87 251.015L1164.94 251.051L1165.01 251.086L1165.08 251.122L1165.15 251.156L1165.22 251.191L1165.29 251.226L1165.36 251.26L1165.43 251.294L1165.49 251.328L1165.56 251.361L1165.63 251.394L1165.69 251.428L1165.76 251.46L1165.82 251.493L1165.89 251.525L1165.95 251.557L1166.01 251.589L1166.08 251.621L1166.14 251.652L1166.2 251.683L1166.26 251.714L1166.32 251.745L1166.38 251.775L1166.44 251.805L1166.5 251.835L1166.56 251.865L1166.62 251.894L1166.68 251.923L1166.74 251.952L1166.79 251.98L1166.81 251.987L1165.68 254.238L1159.75 266.056L1146.5 292.465C1135.29 314.821 1108.08 323.854 1085.72 312.642C1063.37 301.429 1054.33 274.216 1065.55 251.861Z" fill="white" stroke="black" stroke-width="6"/>
<path d="M1060.65 249.86C1071.87 227.504 1099.08 218.471 1121.43 229.684L1121.5 229.716L1121.56 229.749L1121.63 229.782L1121.7 229.815L1121.76 229.848L1121.83 229.881L1121.9 229.915L1121.96 229.949L1122.03 229.983L1122.1 230.018L1122.17 230.053L1122.24 230.088L1122.31 230.123L1122.38 230.158L1122.45 230.194L1122.52 230.23L1122.59 230.266L1122.67 230.302L1122.74 230.338L1122.81 230.375L1122.89 230.412L1122.96 230.449L1123.04 230.487L1123.11 230.524L1123.19 230.562L1123.26 230.6L1123.34 230.638L1123.41 230.677L1123.49 230.716L1123.57 230.754L1123.65 230.793L1123.73 230.833L1123.8 230.872L1123.88 230.912L1123.96 230.952L1124.04 230.992L1124.12 231.032L1124.2 231.073L1124.28 231.114L1124.37 231.154L1124.45 231.196L1124.53 231.237L1124.61 231.278L1124.7 231.32L1124.78 231.362L1124.86 231.404L1124.95 231.446L1125.03 231.489L1125.12 231.531L1125.2 231.574L1125.29 231.617L1125.37 231.66L1125.46 231.704L1125.55 231.747L1125.64 231.791L1125.72 231.835L1125.81 231.879L1125.9 231.923L1125.99 231.967L1126.08 232.012L1126.17 232.057L1126.26 232.102L1126.35 232.147L1126.44 232.192L1126.53 232.238L1126.62 232.283L1126.71 232.329L1126.8 232.375L1126.89 232.421L1126.98 232.467L1127.08 232.514L1127.17 232.56L1127.26 232.607L1127.36 232.654L1127.45 232.701L1127.54 232.748L1127.64 232.796L1127.73 232.843L1127.83 232.891L1127.92 232.938L1128.02 232.986L1128.12 233.035L1128.21 233.083L1128.31 233.131L1128.4 233.18L1128.5 233.228L1128.6 233.277L1128.7 233.326L1128.79 233.375L1128.89 233.424L1128.99 233.474L1129.09 233.523L1129.19 233.573L1129.29 233.623L1129.39 233.673L1129.49 233.723L1129.59 233.773L1129.69 233.823L1129.79 233.874L1129.89 233.924L1129.99 233.975L1130.09 234.026L1130.19 234.076L1130.29 234.127L1130.4 234.179L1130.5 234.23L1130.6 234.281L1130.7 234.333L1130.81 234.384L1130.91 234.436L1131.01 234.488L1131.12 234.54L1131.22 234.592L1131.32 234.644L1131.43 234.696L1131.53 234.749L1131.64 234.801L1131.74 234.854L1131.85 234.907L1131.95 234.959L1132.06 235.012L1132.16 235.065L1132.27 235.118L1132.38 235.171L1132.48 235.225L1132.59 235.278L1132.69 235.332L1132.8 235.385L1132.91 235.439L1133.02 235.493L1133.12 235.546L1133.23 235.6L1133.34 235.654L1133.45 235.708L1133.55 235.763L1133.66 235.817L1133.77 235.871L1133.88 235.926L1133.99 235.98L1134.1 236.035L1134.21 236.089L1134.31 236.144L1134.42 236.199L1134.53 236.254L1134.64 236.309L1134.75 236.364L1134.86 236.419L1134.97 236.474L1135.08 236.529L1135.19 236.584L1135.3 236.64L1135.41 236.695L1135.52 236.75L1135.63 236.806L1135.75 236.862L1135.86 236.917L1135.97 236.973L1136.08 237.029L1136.19 237.084L1136.3 237.14L1136.41 237.196L1136.52 237.252L1136.64 237.308L1136.75 237.364L1136.86 237.42L1136.97 237.476L1137.08 237.533L1137.2 237.589L1137.31 237.645L1137.42 237.702L1137.53 237.758L1137.64 237.814L1137.76 237.871L1137.87 237.927L1137.98 237.984L1138.1 238.04L1138.21 238.097L1138.32 238.153L1138.43 238.21L1138.55 238.267L1138.66 238.323L1138.77 238.38L1138.89 238.437L1139 238.494L1139.11 238.551L1139.23 238.607L1139.34 238.664L1139.45 238.721L1139.57 238.778L1139.68 238.835L1139.79 238.892L1139.91 238.949L1140.02 239.006L1140.13 239.063L1140.25 239.12L1140.36 239.177L1140.47 239.234L1140.59 239.291L1140.7 239.348L1140.82 239.405L1140.93 239.462L1141.04 239.519L1141.16 239.576L1141.27 239.633L1141.38 239.69L1141.5 239.747L1141.61 239.804L1141.73 239.861L1141.84 239.918L1141.95 239.975L1142.07 240.032L1142.18 240.089L1142.29 240.146L1142.41 240.203L1142.52 240.26L1142.63 240.317L1142.75 240.373L1142.86 240.43L1142.97 240.487L1143.09 240.544L1143.2 240.601L1143.31 240.658L1143.43 240.715L1143.54 240.771L1143.65 240.828L1143.77 240.885L1143.88 240.942L1143.99 240.998L1144.11 241.055L1144.22 241.111L1144.33 241.168L1144.44 241.225L1144.56 241.281L1144.67 241.338L1144.78 241.394L1144.89 241.45L1145.01 241.507L1145.12 241.563L1145.23 241.619L1145.34 241.676L1145.46 241.732L1145.57 241.788L1145.68 241.844L1145.79 241.9L1145.9 241.956L1146.01 242.012L1146.13 242.068L1146.24 242.124L1146.35 242.18L1146.46 242.235L1146.57 242.291L1146.68 242.347L1146.79 242.402L1146.9 242.458L1147.01 242.513L1147.12 242.569L1147.23 242.624L1147.34 242.679L1147.45 242.735L1147.56 242.79L1147.67 242.845L1147.78 242.9L1147.89 242.955L1148 243.01L1148.11 243.064L1148.22 243.119L1148.33 243.174L1148.44 243.228L1148.55 243.283L1148.66 243.337L1148.76 243.392L1148.87 243.446L1148.98 243.5L1149.09 243.554L1149.2 243.608L1149.3 243.662L1149.41 243.716L1149.52 243.77L1149.63 243.823L1149.73 243.877L1149.84 243.93L1149.95 243.984L1150.05 244.037L1150.16 244.09L1150.26 244.143L1150.37 244.196L1150.47 244.249L1150.58 244.302L1150.68 244.354L1150.79 244.407L1150.89 244.46L1151 244.512L1151.1 244.564L1151.21 244.616L1151.31 244.668L1151.41 244.72L1151.52 244.772L1151.62 244.824L1151.72 244.876L1151.83 244.927L1151.93 244.978L1152.03 245.03L1152.13 245.081L1152.23 245.132L1152.34 245.183L1152.44 245.234L1152.54 245.284L1152.64 245.335L1152.74 245.385L1152.84 245.435L1152.94 245.486L1153.04 245.536L1153.14 245.586L1153.24 245.635L1153.34 245.685L1153.44 245.734L1153.53 245.784L1153.63 245.833L1153.73 245.882L1153.83 245.931L1153.93 245.98L1154.02 246.029L1154.12 246.077L1154.22 246.126L1154.31 246.174L1154.41 246.222L1154.5 246.27L1154.6 246.318L1154.69 246.365L1154.79 246.413L1154.88 246.46L1154.98 246.507L1155.07 246.554L1155.16 246.601L1155.26 246.648L1155.35 246.695L1155.44 246.741L1155.54 246.787L1155.63 246.833L1155.72 246.879L1155.81 246.925L1155.9 246.971L1155.99 247.016L1156.08 247.061L1156.17 247.107L1156.26 247.152L1156.35 247.196L1156.44 247.241L1156.53 247.285L1156.62 247.33L1156.7 247.374L1156.79 247.418L1156.88 247.461L1156.97 247.505L1157.05 247.548L1157.14 247.591L1157.22 247.634L1157.31 247.677L1157.39 247.72L1157.48 247.762L1157.56 247.804L1157.65 247.846L1157.73 247.888L1157.81 247.93L1157.9 247.972L1157.98 248.013L1158.06 248.054L1158.14 248.095L1158.22 248.136L1158.3 248.176L1158.38 248.216L1158.46 248.256L1158.54 248.296L1158.62 248.336L1158.7 248.376L1158.78 248.415L1158.86 248.454L1158.94 248.493L1159.01 248.532L1159.09 248.57L1159.17 248.608L1159.24 248.646L1159.32 248.684L1159.39 248.722L1159.47 248.759L1159.54 248.796L1159.61 248.833L1159.69 248.87L1159.76 248.906L1159.83 248.943L1159.9 248.979L1159.98 249.015L1160.05 249.05L1160.12 249.086L1160.19 249.121L1160.26 249.156L1160.33 249.19L1160.4 249.225L1160.46 249.259L1160.53 249.293L1160.6 249.327L1160.67 249.361L1160.73 249.394L1160.8 249.427L1160.86 249.46L1160.93 249.492L1160.99 249.525L1161.06 249.557L1161.12 249.589L1161.18 249.62L1161.25 249.651L1161.31 249.683L1161.37 249.713L1161.43 249.744L1161.49 249.774L1161.55 249.804L1161.61 249.834L1161.67 249.864L1161.73 249.893L1161.79 249.922L1161.84 249.951L1161.9 249.98L1161.91 249.986L1160.78 252.237L1154.86 264.056L1141.61 290.465C1130.4 312.82 1103.19 321.854 1080.83 310.641C1058.47 299.428 1049.44 272.216 1060.65 249.86Z" fill="white" stroke="black" stroke-width="6"/>
<circle cx="1099.93" cy="270.562" r="35.4508" transform="rotate(-108.364 1099.93 270.562)" fill="#7C64C2"/>
<path d="M1110.93 255.145C1111.74 255.145 1112.27 255.74 1112.51 256.93C1112.68 262.472 1112.76 268.524 1112.76 275.086C1112.76 281.614 1112.73 285.388 1112.66 286.408C1112.59 287.428 1112.37 288.142 1112 288.55C1111.62 288.958 1110.94 289.162 1109.96 289.162C1109.07 289.162 1108.63 288.618 1108.63 287.53V276.004C1108.63 274.134 1108.6 272.213 1108.53 270.241C1108.46 268.269 1108.43 267.028 1108.43 266.518C1107.27 268.49 1105.74 270.122 1103.84 271.414C1101.93 272.672 1099.81 273.301 1097.46 273.301C1095.12 273.301 1093.14 272.332 1091.55 270.394C1091.48 272.468 1091.44 274.933 1091.44 277.789C1091.44 280.611 1091.46 283.586 1091.5 286.714C1091.5 287.564 1091.21 288.193 1090.63 288.601C1090.08 288.975 1089.46 289.162 1088.74 289.162C1087.82 289.162 1087.36 288.601 1087.36 287.479C1087.4 284.419 1087.42 279.574 1087.42 272.944V258.46C1087.42 257.882 1087.6 257.321 1087.98 256.777C1088.38 256.233 1088.84 255.961 1089.35 255.961C1089.9 255.961 1090.39 256.114 1090.83 256.42C1091.27 256.692 1091.51 257.117 1091.55 257.695C1091.68 261.469 1092.29 264.274 1093.38 266.11C1094.47 267.946 1095.76 268.864 1097.26 268.864C1098.75 268.864 1100.03 268.626 1101.08 268.15C1102.17 267.64 1103.06 267.062 1103.74 266.416C1104.45 265.77 1105.13 264.852 1105.78 263.662C1106.69 261.962 1107.58 259.871 1108.43 257.389C1108.94 255.893 1109.77 255.145 1110.93 255.145Z" fill="white"/>
<path d="M1376.74 449.561C1366.54 472.399 1339.77 482.649 1316.93 472.454L1316.86 472.425L1316.8 472.395L1316.73 472.365L1316.66 472.335L1316.59 472.305L1316.53 472.274L1316.46 472.244L1316.39 472.213L1316.32 472.182L1316.25 472.15L1316.18 472.119L1316.11 472.087L1316.03 472.055L1315.96 472.023L1315.89 471.99L1315.82 471.958L1315.74 471.925L1315.67 471.892L1315.6 471.859L1315.52 471.825L1315.44 471.792L1315.37 471.758L1315.29 471.724L1315.22 471.69L1315.14 471.655L1315.06 471.621L1314.98 471.586L1314.91 471.551L1314.83 471.516L1314.75 471.481L1314.67 471.445L1314.59 471.409L1314.51 471.373L1314.43 471.337L1314.35 471.301L1314.26 471.265L1314.18 471.228L1314.1 471.191L1314.02 471.154L1313.93 471.117L1313.85 471.08L1313.77 471.042L1313.68 471.004L1313.6 470.966L1313.51 470.928L1313.42 470.89L1313.34 470.852L1313.25 470.813L1313.17 470.774L1313.08 470.735L1312.99 470.696L1312.9 470.657L1312.81 470.618L1312.73 470.578L1312.64 470.538L1312.55 470.498L1312.46 470.458L1312.37 470.418L1312.28 470.378L1312.19 470.337L1312.09 470.296L1312 470.256L1311.91 470.215L1311.82 470.173L1311.73 470.132L1311.63 470.091L1311.54 470.049L1311.45 470.007L1311.35 469.965L1311.26 469.923L1311.16 469.881L1311.07 469.839L1310.97 469.796L1310.88 469.754L1310.78 469.711L1310.69 469.668L1310.59 469.625L1310.49 469.582L1310.4 469.538L1310.3 469.495L1310.2 469.451L1310.1 469.407L1310.01 469.364L1309.91 469.32L1309.81 469.275L1309.71 469.231L1309.61 469.187L1309.51 469.142L1309.41 469.098L1309.31 469.053L1309.21 469.008L1309.11 468.963L1309.01 468.918L1308.91 468.873L1308.8 468.827L1308.7 468.782L1308.6 468.736L1308.5 468.69L1308.39 468.645L1308.29 468.599L1308.19 468.553L1308.09 468.506L1307.98 468.46L1307.88 468.414L1307.77 468.367L1307.67 468.321L1307.56 468.274L1307.46 468.227L1307.35 468.18L1307.25 468.133L1307.14 468.086L1307.04 468.039L1306.93 467.991L1306.83 467.944L1306.72 467.897L1306.61 467.849L1306.51 467.801L1306.4 467.753L1306.29 467.705L1306.18 467.657L1306.08 467.609L1305.97 467.561L1305.86 467.513L1305.75 467.465L1305.64 467.416L1305.53 467.368L1305.42 467.319L1305.32 467.27L1305.21 467.221L1305.1 467.173L1304.99 467.124L1304.88 467.075L1304.77 467.026L1304.66 466.976L1304.55 466.927L1304.44 466.878L1304.33 466.828L1304.22 466.779L1304.1 466.729L1303.99 466.68L1303.88 466.63L1303.77 466.58L1303.66 466.531L1303.55 466.481L1303.44 466.431L1303.32 466.381L1303.21 466.331L1303.1 466.281L1302.99 466.23L1302.87 466.18L1302.76 466.13L1302.65 466.079L1302.54 466.029L1302.42 465.979L1302.31 465.928L1302.2 465.877L1302.08 465.827L1301.97 465.776L1301.85 465.725L1301.74 465.675L1301.63 465.624L1301.51 465.573L1301.4 465.522L1301.28 465.471L1301.17 465.42L1301.06 465.369L1300.94 465.318L1300.83 465.267L1300.71 465.215L1300.6 465.164L1300.48 465.113L1300.37 465.062L1300.25 465.01L1300.14 464.959L1300.02 464.908L1299.91 464.856L1299.79 464.805L1299.68 464.753L1299.56 464.702L1299.45 464.65L1299.33 464.599L1299.22 464.547L1299.1 464.496L1298.98 464.444L1298.87 464.392L1298.75 464.341L1298.64 464.289L1298.52 464.237L1298.41 464.185L1298.29 464.134L1298.17 464.082L1298.06 464.03L1297.94 463.978L1297.83 463.927L1297.71 463.875L1297.59 463.823L1297.48 463.771L1297.36 463.719L1297.25 463.668L1297.13 463.616L1297.01 463.564L1296.9 463.512L1296.78 463.46L1296.66 463.408L1296.55 463.357L1296.43 463.305L1296.32 463.253L1296.2 463.201L1296.08 463.149L1295.97 463.097L1295.85 463.046L1295.74 462.994L1295.62 462.942L1295.5 462.89L1295.39 462.838L1295.27 462.787L1295.16 462.735L1295.04 462.683L1294.92 462.631L1294.81 462.58L1294.69 462.528L1294.58 462.476L1294.46 462.425L1294.35 462.373L1294.23 462.322L1294.11 462.27L1294 462.218L1293.88 462.167L1293.77 462.115L1293.65 462.064L1293.54 462.012L1293.42 461.961L1293.31 461.91L1293.19 461.858L1293.08 461.807L1292.96 461.756L1292.85 461.704L1292.73 461.653L1292.62 461.602L1292.5 461.551L1292.39 461.5L1292.27 461.449L1292.16 461.398L1292.05 461.347L1291.93 461.296L1291.82 461.245L1291.7 461.194L1291.59 461.143L1291.48 461.093L1291.36 461.042L1291.25 460.991L1291.14 460.941L1291.02 460.89L1290.91 460.84L1290.8 460.789L1290.68 460.739L1290.57 460.689L1290.46 460.638L1290.35 460.588L1290.23 460.538L1290.12 460.488L1290.01 460.438L1289.9 460.388L1289.79 460.338L1289.67 460.288L1289.56 460.239L1289.45 460.189L1289.34 460.139L1289.23 460.09L1289.12 460.04L1289.01 459.991L1288.9 459.942L1288.79 459.892L1288.68 459.843L1288.57 459.794L1288.46 459.745L1288.35 459.696L1288.24 459.647L1288.13 459.598L1288.02 459.55L1287.91 459.501L1287.8 459.453L1287.69 459.404L1287.59 459.356L1287.48 459.307L1287.37 459.259L1287.26 459.211L1287.15 459.163L1287.05 459.115L1286.94 459.067L1286.83 459.02L1286.73 458.972L1286.62 458.925L1286.51 458.877L1286.41 458.83L1286.3 458.783L1286.2 458.736L1286.09 458.688L1285.99 458.642L1285.88 458.595L1285.78 458.548L1285.67 458.501L1285.57 458.455L1285.46 458.408L1285.36 458.362L1285.26 458.316L1285.15 458.27L1285.05 458.224L1284.95 458.178L1284.85 458.132L1284.74 458.087L1284.64 458.041L1284.54 457.996L1284.44 457.951L1284.34 457.906L1284.24 457.861L1284.14 457.816L1284.04 457.771L1283.94 457.726L1283.84 457.682L1283.74 457.637L1283.64 457.593L1283.54 457.549L1283.44 457.505L1283.34 457.461L1283.24 457.417L1283.15 457.374L1283.05 457.33L1282.95 457.287L1282.85 457.244L1282.76 457.201L1282.66 457.158L1282.57 457.115L1282.47 457.072L1282.38 457.03L1282.28 456.988L1282.19 456.945L1282.09 456.903L1282 456.861L1281.9 456.82L1281.81 456.778L1281.72 456.737L1281.63 456.695L1281.53 456.654L1281.44 456.613L1281.35 456.572L1281.26 456.532L1281.17 456.491L1281.08 456.451L1280.99 456.41L1280.9 456.37L1280.81 456.33L1280.72 456.291L1280.63 456.251L1280.54 456.212L1280.45 456.172L1280.37 456.133L1280.28 456.094L1280.19 456.056L1280.11 456.017L1280.02 455.979L1279.93 455.94L1279.85 455.902L1279.76 455.864L1279.68 455.827L1279.6 455.789L1279.51 455.752L1279.43 455.715L1279.35 455.678L1279.26 455.641L1279.18 455.604L1279.1 455.568L1279.02 455.531L1278.94 455.495L1278.86 455.459L1278.78 455.424L1278.7 455.388L1278.62 455.353L1278.54 455.317L1278.46 455.283L1278.38 455.248L1278.31 455.213L1278.23 455.179L1278.15 455.145L1278.08 455.111L1278 455.077L1277.92 455.043L1277.85 455.01L1277.78 454.977L1277.7 454.944L1277.63 454.911L1277.56 454.878L1277.48 454.846L1277.41 454.814L1277.34 454.782L1277.27 454.75L1277.2 454.718L1277.13 454.687L1277.06 454.656L1276.99 454.625L1276.92 454.594L1276.85 454.564L1276.78 454.534L1276.72 454.503L1276.65 454.474L1276.58 454.444L1276.52 454.415L1276.45 454.385L1276.39 454.356L1276.32 454.328L1276.26 454.299L1276.19 454.271L1276.13 454.243L1276.07 454.215L1276.01 454.188L1275.95 454.16L1275.89 454.133L1275.83 454.106L1275.77 454.079L1275.71 454.053L1275.65 454.027L1275.59 454.001L1275.58 453.995L1276.6 451.695L1281.99 439.622L1294.04 412.643C1304.23 389.805 1331.01 379.556 1353.85 389.751C1376.68 399.945 1386.93 426.723 1376.74 449.561Z" fill="white" stroke="black" stroke-width="6"/>
<path d="M1381.72 451.34C1371.52 474.178 1344.74 484.427 1321.91 474.232L1321.84 474.203L1321.77 474.173L1321.71 474.143L1321.64 474.113L1321.57 474.083L1321.5 474.053L1321.44 474.022L1321.37 473.991L1321.3 473.96L1321.23 473.929L1321.16 473.897L1321.08 473.865L1321.01 473.833L1320.94 473.801L1320.87 473.769L1320.8 473.736L1320.72 473.703L1320.65 473.67L1320.57 473.637L1320.5 473.604L1320.42 473.57L1320.35 473.536L1320.27 473.502L1320.19 473.468L1320.12 473.434L1320.04 473.399L1319.96 473.364L1319.88 473.329L1319.81 473.294L1319.73 473.259L1319.65 473.223L1319.57 473.188L1319.49 473.152L1319.41 473.116L1319.32 473.079L1319.24 473.043L1319.16 473.006L1319.08 472.969L1318.99 472.932L1318.91 472.895L1318.83 472.858L1318.74 472.82L1318.66 472.783L1318.57 472.745L1318.49 472.707L1318.4 472.668L1318.32 472.63L1318.23 472.591L1318.14 472.553L1318.06 472.514L1317.97 472.475L1317.88 472.435L1317.79 472.396L1317.7 472.356L1317.62 472.317L1317.53 472.277L1317.44 472.237L1317.35 472.196L1317.26 472.156L1317.16 472.115L1317.07 472.075L1316.98 472.034L1316.89 471.993L1316.8 471.952L1316.71 471.91L1316.61 471.869L1316.52 471.827L1316.43 471.786L1316.33 471.744L1316.24 471.702L1316.14 471.659L1316.05 471.617L1315.95 471.574L1315.86 471.532L1315.76 471.489L1315.67 471.446L1315.57 471.403L1315.47 471.36L1315.38 471.317L1315.28 471.273L1315.18 471.23L1315.08 471.186L1314.98 471.142L1314.89 471.098L1314.79 471.054L1314.69 471.01L1314.59 470.965L1314.49 470.921L1314.39 470.876L1314.29 470.831L1314.19 470.786L1314.09 470.741L1313.99 470.696L1313.88 470.651L1313.78 470.606L1313.68 470.56L1313.58 470.514L1313.48 470.469L1313.37 470.423L1313.27 470.377L1313.17 470.331L1313.06 470.285L1312.96 470.238L1312.86 470.192L1312.75 470.146L1312.65 470.099L1312.54 470.052L1312.44 470.005L1312.33 469.958L1312.23 469.911L1312.12 469.864L1312.02 469.817L1311.91 469.77L1311.8 469.722L1311.7 469.675L1311.59 469.627L1311.48 469.579L1311.38 469.532L1311.27 469.484L1311.16 469.436L1311.05 469.388L1310.95 469.339L1310.84 469.291L1310.73 469.243L1310.62 469.194L1310.51 469.146L1310.4 469.097L1310.29 469.049L1310.19 469L1310.08 468.951L1309.97 468.902L1309.86 468.853L1309.75 468.804L1309.64 468.755L1309.53 468.705L1309.42 468.656L1309.3 468.607L1309.19 468.557L1309.08 468.508L1308.97 468.458L1308.86 468.408L1308.75 468.359L1308.64 468.309L1308.53 468.259L1308.41 468.209L1308.3 468.159L1308.19 468.109L1308.08 468.059L1307.96 468.009L1307.85 467.958L1307.74 467.908L1307.63 467.858L1307.51 467.807L1307.4 467.757L1307.29 467.706L1307.17 467.656L1307.06 467.605L1306.95 467.554L1306.83 467.504L1306.72 467.453L1306.61 467.402L1306.49 467.351L1306.38 467.3L1306.26 467.249L1306.15 467.198L1306.03 467.147L1305.92 467.096L1305.81 467.045L1305.69 466.994L1305.58 466.943L1305.46 466.891L1305.35 466.84L1305.23 466.789L1305.12 466.737L1305 466.686L1304.89 466.635L1304.77 466.583L1304.66 466.532L1304.54 466.48L1304.43 466.429L1304.31 466.377L1304.19 466.325L1304.08 466.274L1303.96 466.222L1303.85 466.171L1303.73 466.119L1303.62 466.067L1303.5 466.016L1303.38 465.964L1303.27 465.912L1303.15 465.86L1303.04 465.809L1302.92 465.757L1302.8 465.705L1302.69 465.653L1302.57 465.601L1302.46 465.55L1302.34 465.498L1302.22 465.446L1302.11 465.394L1301.99 465.342L1301.88 465.29L1301.76 465.239L1301.64 465.187L1301.53 465.135L1301.41 465.083L1301.29 465.031L1301.18 464.979L1301.06 464.928L1300.95 464.876L1300.83 464.824L1300.71 464.772L1300.6 464.72L1300.48 464.669L1300.37 464.617L1300.25 464.565L1300.13 464.513L1300.02 464.461L1299.9 464.41L1299.79 464.358L1299.67 464.306L1299.56 464.255L1299.44 464.203L1299.32 464.151L1299.21 464.1L1299.09 464.048L1298.98 463.997L1298.86 463.945L1298.75 463.894L1298.63 463.842L1298.52 463.791L1298.4 463.739L1298.29 463.688L1298.17 463.637L1298.06 463.585L1297.94 463.534L1297.83 463.483L1297.71 463.432L1297.6 463.38L1297.48 463.329L1297.37 463.278L1297.25 463.227L1297.14 463.176L1297.02 463.125L1296.91 463.074L1296.8 463.023L1296.68 462.972L1296.57 462.922L1296.46 462.871L1296.34 462.82L1296.23 462.77L1296.11 462.719L1296 462.668L1295.89 462.618L1295.78 462.568L1295.66 462.517L1295.55 462.467L1295.44 462.417L1295.33 462.366L1295.21 462.316L1295.1 462.266L1294.99 462.216L1294.88 462.166L1294.76 462.116L1294.65 462.067L1294.54 462.017L1294.43 461.967L1294.32 461.918L1294.21 461.868L1294.1 461.819L1293.99 461.769L1293.88 461.72L1293.77 461.671L1293.66 461.621L1293.55 461.572L1293.44 461.523L1293.33 461.474L1293.22 461.425L1293.11 461.377L1293 461.328L1292.89 461.279L1292.78 461.231L1292.67 461.182L1292.56 461.134L1292.46 461.086L1292.35 461.038L1292.24 460.99L1292.13 460.942L1292.03 460.894L1291.92 460.846L1291.81 460.798L1291.7 460.75L1291.6 460.703L1291.49 460.656L1291.39 460.608L1291.28 460.561L1291.17 460.514L1291.07 460.467L1290.96 460.42L1290.86 460.373L1290.75 460.326L1290.65 460.28L1290.55 460.233L1290.44 460.187L1290.34 460.141L1290.24 460.094L1290.13 460.048L1290.03 460.002L1289.93 459.956L1289.82 459.911L1289.72 459.865L1289.62 459.82L1289.52 459.774L1289.42 459.729L1289.32 459.684L1289.21 459.639L1289.11 459.594L1289.01 459.549L1288.91 459.505L1288.81 459.46L1288.71 459.416L1288.62 459.371L1288.52 459.327L1288.42 459.283L1288.32 459.239L1288.22 459.196L1288.12 459.152L1288.03 459.109L1287.93 459.065L1287.83 459.022L1287.74 458.979L1287.64 458.936L1287.54 458.893L1287.45 458.851L1287.35 458.808L1287.26 458.766L1287.16 458.724L1287.07 458.682L1286.98 458.64L1286.88 458.598L1286.79 458.556L1286.7 458.515L1286.6 458.474L1286.51 458.432L1286.42 458.391L1286.33 458.351L1286.24 458.31L1286.15 458.269L1286.06 458.229L1285.97 458.189L1285.88 458.149L1285.79 458.109L1285.7 458.069L1285.61 458.029L1285.52 457.99L1285.43 457.951L1285.35 457.912L1285.26 457.873L1285.17 457.834L1285.08 457.795L1285 457.757L1284.91 457.719L1284.83 457.681L1284.74 457.643L1284.66 457.605L1284.57 457.567L1284.49 457.53L1284.41 457.493L1284.32 457.456L1284.24 457.419L1284.16 457.382L1284.08 457.346L1284 457.31L1283.92 457.273L1283.84 457.238L1283.76 457.202L1283.68 457.166L1283.6 457.131L1283.52 457.096L1283.44 457.061L1283.36 457.026L1283.28 456.991L1283.21 456.957L1283.13 456.923L1283.05 456.889L1282.98 456.855L1282.9 456.821L1282.83 456.788L1282.75 456.755L1282.68 456.722L1282.61 456.689L1282.53 456.657L1282.46 456.624L1282.39 456.592L1282.32 456.56L1282.25 456.528L1282.18 456.497L1282.11 456.465L1282.04 456.434L1281.97 456.403L1281.9 456.373L1281.83 456.342L1281.76 456.312L1281.69 456.282L1281.63 456.252L1281.56 456.222L1281.5 456.193L1281.43 456.164L1281.36 456.135L1281.3 456.106L1281.24 456.078L1281.17 456.049L1281.11 456.021L1281.05 455.993L1280.99 455.966L1280.93 455.938L1280.86 455.911L1280.8 455.884L1280.74 455.858L1280.69 455.831L1280.63 455.805L1280.57 455.779L1280.56 455.773L1281.58 453.473L1286.97 441.4L1299.01 414.422C1309.21 391.584 1335.99 381.334 1358.82 391.529C1381.66 401.723 1391.91 428.502 1381.72 451.34Z" fill="white" stroke="black" stroke-width="6"/>
<circle cx="1341.55" cy="432.427" r="35.4508" transform="rotate(69.0555 1341.55 432.427)" fill="#F14E1C"/>
<path d="M1343.41 417.215C1345.62 417.215 1347.49 417.589 1349.02 418.337C1350.59 419.085 1351.37 420.037 1351.37 421.193C1351.37 421.703 1351.23 422.145 1350.96 422.519C1350.72 422.893 1350.35 423.08 1349.84 423.08C1349.36 423.08 1348.31 422.706 1346.68 421.958C1345.04 421.176 1343.55 420.785 1342.19 420.785C1340.86 420.785 1339.49 421.21 1338.06 422.06C1336.63 422.91 1335.92 423.947 1335.92 425.171C1335.92 426.837 1336.78 428.061 1338.52 428.843C1339.81 429.421 1341.66 429.948 1344.08 430.424C1346.49 430.866 1348.46 431.801 1349.99 433.229C1351.52 434.623 1352.29 436.748 1352.29 439.604C1352.29 443.956 1350.98 447.169 1348.36 449.243C1346.9 450.399 1344.82 450.977 1342.14 450.977C1339.49 450.977 1336.83 450.246 1334.18 448.784C1332.45 447.866 1331.58 446.948 1331.58 446.03C1331.58 445.69 1331.72 445.316 1331.99 444.908C1332.29 444.5 1332.7 444.16 1333.21 443.888C1333.72 443.616 1334.18 443.582 1334.59 443.786C1335.03 443.956 1335.73 444.279 1336.68 444.755C1337.63 445.231 1338.33 445.554 1338.77 445.724C1340.2 446.268 1341.54 446.54 1342.8 446.54C1344.06 446.54 1345.27 445.928 1346.42 444.704C1347.61 443.446 1348.21 441.916 1348.21 440.114C1348.21 437.734 1347.02 436.068 1344.64 435.116C1343.48 434.64 1342.17 434.283 1340.71 434.045C1337.68 433.501 1335.41 432.6 1333.88 431.342C1332.35 430.05 1331.58 428.112 1331.58 425.528C1331.58 422.944 1332.69 420.921 1334.9 419.459C1337.11 417.963 1339.94 417.215 1343.41 417.215Z" fill="white"/>
<path d="M1082.94 1126.08C1058.17 1129.48 1035.32 1112.16 1031.91 1087.38L1031.9 1087.31L1031.89 1087.24L1031.88 1087.17L1031.87 1087.1L1031.86 1087.02L1031.85 1086.95L1031.84 1086.87L1031.83 1086.8L1031.82 1086.72L1031.81 1086.65L1031.8 1086.57L1031.79 1086.49L1031.78 1086.41L1031.77 1086.34L1031.75 1086.26L1031.74 1086.18L1031.73 1086.1L1031.72 1086.02L1031.71 1085.94L1031.7 1085.86L1031.69 1085.78L1031.68 1085.69L1031.67 1085.61L1031.65 1085.53L1031.64 1085.44L1031.63 1085.36L1031.62 1085.27L1031.61 1085.19L1031.6 1085.1L1031.58 1085.02L1031.57 1084.93L1031.56 1084.85L1031.55 1084.76L1031.54 1084.67L1031.52 1084.58L1031.51 1084.49L1031.5 1084.4L1031.49 1084.32L1031.47 1084.23L1031.46 1084.13L1031.45 1084.04L1031.44 1083.95L1031.42 1083.86L1031.41 1083.77L1031.4 1083.68L1031.39 1083.58L1031.37 1083.49L1031.36 1083.4L1031.35 1083.3L1031.33 1083.21L1031.32 1083.11L1031.31 1083.02L1031.3 1082.92L1031.28 1082.83L1031.27 1082.73L1031.26 1082.63L1031.24 1082.53L1031.23 1082.44L1031.22 1082.34L1031.2 1082.24L1031.19 1082.14L1031.17 1082.04L1031.16 1081.94L1031.15 1081.84L1031.13 1081.74L1031.12 1081.64L1031.11 1081.54L1031.09 1081.44L1031.08 1081.34L1031.06 1081.23L1031.05 1081.13L1031.03 1081.03L1031.02 1080.92L1031.01 1080.82L1030.99 1080.72L1030.98 1080.61L1030.96 1080.51L1030.95 1080.4L1030.93 1080.3L1030.92 1080.19L1030.91 1080.09L1030.89 1079.98L1030.88 1079.87L1030.86 1079.77L1030.85 1079.66L1030.83 1079.55L1030.82 1079.44L1030.8 1079.34L1030.79 1079.23L1030.77 1079.12L1030.76 1079.01L1030.74 1078.9L1030.73 1078.79L1030.71 1078.68L1030.7 1078.57L1030.68 1078.46L1030.67 1078.35L1030.65 1078.24L1030.64 1078.13L1030.62 1078.01L1030.6 1077.9L1030.59 1077.79L1030.57 1077.68L1030.56 1077.57L1030.54 1077.45L1030.53 1077.34L1030.51 1077.23L1030.5 1077.11L1030.48 1077L1030.46 1076.88L1030.45 1076.77L1030.43 1076.65L1030.42 1076.54L1030.4 1076.42L1030.39 1076.31L1030.37 1076.19L1030.35 1076.08L1030.34 1075.96L1030.32 1075.84L1030.31 1075.73L1030.29 1075.61L1030.27 1075.49L1030.26 1075.38L1030.24 1075.26L1030.23 1075.14L1030.21 1075.02L1030.19 1074.9L1030.18 1074.79L1030.16 1074.67L1030.14 1074.55L1030.13 1074.43L1030.11 1074.31L1030.09 1074.19L1030.08 1074.07L1030.06 1073.95L1030.05 1073.83L1030.03 1073.71L1030.01 1073.59L1030 1073.47L1029.98 1073.35L1029.96 1073.23L1029.95 1073.11L1029.93 1072.99L1029.91 1072.87L1029.9 1072.75L1029.88 1072.62L1029.86 1072.5L1029.85 1072.38L1029.83 1072.26L1029.81 1072.14L1029.8 1072.01L1029.78 1071.89L1029.76 1071.77L1029.74 1071.65L1029.73 1071.52L1029.71 1071.4L1029.69 1071.28L1029.68 1071.15L1029.66 1071.03L1029.64 1070.91L1029.63 1070.78L1029.61 1070.66L1029.59 1070.54L1029.57 1070.41L1029.56 1070.29L1029.54 1070.16L1029.52 1070.04L1029.51 1069.92L1029.49 1069.79L1029.47 1069.67L1029.46 1069.54L1029.44 1069.42L1029.42 1069.29L1029.4 1069.17L1029.39 1069.04L1029.37 1068.92L1029.35 1068.79L1029.33 1068.67L1029.32 1068.54L1029.3 1068.42L1029.28 1068.29L1029.27 1068.17L1029.25 1068.04L1029.23 1067.92L1029.21 1067.79L1029.2 1067.67L1029.18 1067.54L1029.16 1067.41L1029.15 1067.29L1029.13 1067.16L1029.11 1067.04L1029.09 1066.91L1029.08 1066.79L1029.06 1066.66L1029.04 1066.53L1029.02 1066.41L1029.01 1066.28L1028.99 1066.16L1028.97 1066.03L1028.95 1065.9L1028.94 1065.78L1028.92 1065.65L1028.9 1065.53L1028.89 1065.4L1028.87 1065.27L1028.85 1065.15L1028.83 1065.02L1028.82 1064.9L1028.8 1064.77L1028.78 1064.64L1028.76 1064.52L1028.75 1064.39L1028.73 1064.27L1028.71 1064.14L1028.69 1064.01L1028.68 1063.89L1028.66 1063.76L1028.64 1063.64L1028.63 1063.51L1028.61 1063.39L1028.59 1063.26L1028.57 1063.14L1028.56 1063.01L1028.54 1062.88L1028.52 1062.76L1028.5 1062.63L1028.49 1062.51L1028.47 1062.38L1028.45 1062.26L1028.44 1062.13L1028.42 1062.01L1028.4 1061.88L1028.38 1061.76L1028.37 1061.63L1028.35 1061.51L1028.33 1061.38L1028.32 1061.26L1028.3 1061.13L1028.28 1061.01L1028.26 1060.89L1028.25 1060.76L1028.23 1060.64L1028.21 1060.51L1028.2 1060.39L1028.18 1060.27L1028.16 1060.14L1028.14 1060.02L1028.13 1059.9L1028.11 1059.77L1028.09 1059.65L1028.08 1059.53L1028.06 1059.4L1028.04 1059.28L1028.03 1059.16L1028.01 1059.03L1027.99 1058.91L1027.98 1058.79L1027.96 1058.67L1027.94 1058.55L1027.93 1058.42L1027.91 1058.3L1027.89 1058.18L1027.88 1058.06L1027.86 1057.94L1027.84 1057.82L1027.83 1057.7L1027.81 1057.58L1027.79 1057.45L1027.78 1057.33L1027.76 1057.21L1027.74 1057.09L1027.73 1056.97L1027.71 1056.85L1027.69 1056.74L1027.68 1056.62L1027.66 1056.5L1027.64 1056.38L1027.63 1056.26L1027.61 1056.14L1027.6 1056.02L1027.58 1055.9L1027.56 1055.79L1027.55 1055.67L1027.53 1055.55L1027.51 1055.43L1027.5 1055.32L1027.48 1055.2L1027.47 1055.08L1027.45 1054.97L1027.43 1054.85L1027.42 1054.73L1027.4 1054.62L1027.39 1054.5L1027.37 1054.39L1027.35 1054.27L1027.34 1054.16L1027.32 1054.04L1027.31 1053.93L1027.29 1053.81L1027.28 1053.7L1027.26 1053.59L1027.24 1053.47L1027.23 1053.36L1027.21 1053.25L1027.2 1053.14L1027.18 1053.02L1027.17 1052.91L1027.15 1052.8L1027.14 1052.69L1027.12 1052.58L1027.11 1052.47L1027.09 1052.36L1027.08 1052.25L1027.06 1052.14L1027.05 1052.03L1027.03 1051.92L1027.02 1051.81L1027 1051.7L1026.99 1051.59L1026.97 1051.48L1026.96 1051.37L1026.94 1051.27L1026.93 1051.16L1026.91 1051.05L1026.9 1050.95L1026.88 1050.84L1026.87 1050.73L1026.85 1050.63L1026.84 1050.52L1026.82 1050.42L1026.81 1050.31L1026.8 1050.21L1026.78 1050.11L1026.77 1050L1026.75 1049.9L1026.74 1049.8L1026.72 1049.69L1026.71 1049.59L1026.7 1049.49L1026.68 1049.39L1026.67 1049.29L1026.65 1049.19L1026.64 1049.08L1026.63 1048.98L1026.61 1048.89L1026.6 1048.79L1026.59 1048.69L1026.57 1048.59L1026.56 1048.49L1026.55 1048.39L1026.53 1048.29L1026.52 1048.2L1026.51 1048.1L1026.49 1048.01L1026.48 1047.91L1026.47 1047.81L1026.45 1047.72L1026.44 1047.62L1026.43 1047.53L1026.41 1047.44L1026.4 1047.34L1026.39 1047.25L1026.38 1047.16L1026.36 1047.07L1026.35 1046.97L1026.34 1046.88L1026.33 1046.79L1026.31 1046.7L1026.3 1046.61L1026.29 1046.52L1026.28 1046.43L1026.26 1046.34L1026.25 1046.26L1026.24 1046.17L1026.23 1046.08L1026.22 1045.99L1026.2 1045.91L1026.19 1045.82L1026.18 1045.74L1026.17 1045.65L1026.16 1045.57L1026.15 1045.48L1026.13 1045.4L1026.12 1045.32L1026.11 1045.23L1026.1 1045.15L1026.09 1045.07L1026.08 1044.99L1026.07 1044.91L1026.06 1044.83L1026.04 1044.75L1026.03 1044.67L1026.02 1044.59L1026.01 1044.51L1026 1044.43L1025.99 1044.36L1025.98 1044.28L1025.97 1044.2L1025.96 1044.13L1025.95 1044.05L1025.94 1043.98L1025.93 1043.9L1025.92 1043.83L1025.91 1043.76L1025.9 1043.69L1025.89 1043.61L1025.88 1043.54L1025.87 1043.47L1025.86 1043.4L1025.85 1043.33L1025.84 1043.26L1025.83 1043.19L1025.82 1043.12L1025.81 1043.06L1025.8 1042.99L1025.79 1042.92L1025.78 1042.86L1025.78 1042.79L1025.77 1042.73L1025.76 1042.66L1025.75 1042.6L1025.74 1042.54L1025.74 1042.52L1028.23 1042.18L1041.33 1040.38L1070.6 1036.35C1095.38 1032.94 1118.23 1050.27 1121.63 1075.04C1125.04 1099.82 1107.72 1122.67 1082.94 1126.08Z" fill="white" stroke="black" stroke-width="6"/>
<path d="M1084.06 1131.24C1059.29 1134.65 1036.44 1117.33 1033.03 1092.55L1033.02 1092.48L1033.01 1092.41L1033 1092.33L1032.99 1092.26L1032.98 1092.19L1032.97 1092.11L1032.96 1092.04L1032.95 1091.96L1032.94 1091.89L1032.93 1091.81L1032.92 1091.74L1032.91 1091.66L1032.9 1091.58L1032.89 1091.5L1032.87 1091.42L1032.86 1091.34L1032.85 1091.27L1032.84 1091.19L1032.83 1091.1L1032.82 1091.02L1032.81 1090.94L1032.8 1090.86L1032.79 1090.78L1032.77 1090.69L1032.76 1090.61L1032.75 1090.53L1032.74 1090.44L1032.73 1090.36L1032.72 1090.27L1032.7 1090.19L1032.69 1090.1L1032.68 1090.01L1032.67 1089.92L1032.66 1089.84L1032.64 1089.75L1032.63 1089.66L1032.62 1089.57L1032.61 1089.48L1032.59 1089.39L1032.58 1089.3L1032.57 1089.21L1032.56 1089.12L1032.54 1089.03L1032.53 1088.94L1032.52 1088.84L1032.51 1088.75L1032.49 1088.66L1032.48 1088.56L1032.47 1088.47L1032.45 1088.37L1032.44 1088.28L1032.43 1088.18L1032.42 1088.09L1032.4 1087.99L1032.39 1087.89L1032.38 1087.8L1032.36 1087.7L1032.35 1087.6L1032.34 1087.5L1032.32 1087.41L1032.31 1087.31L1032.29 1087.21L1032.28 1087.11L1032.27 1087.01L1032.25 1086.91L1032.24 1086.81L1032.23 1086.71L1032.21 1086.6L1032.2 1086.5L1032.18 1086.4L1032.17 1086.3L1032.16 1086.19L1032.14 1086.09L1032.13 1085.99L1032.11 1085.88L1032.1 1085.78L1032.08 1085.67L1032.07 1085.57L1032.05 1085.46L1032.04 1085.36L1032.03 1085.25L1032.01 1085.15L1032 1085.04L1031.98 1084.93L1031.97 1084.83L1031.95 1084.72L1031.94 1084.61L1031.92 1084.5L1031.91 1084.39L1031.89 1084.29L1031.88 1084.18L1031.86 1084.07L1031.85 1083.96L1031.83 1083.85L1031.82 1083.74L1031.8 1083.63L1031.79 1083.52L1031.77 1083.4L1031.76 1083.29L1031.74 1083.18L1031.73 1083.07L1031.71 1082.96L1031.69 1082.84L1031.68 1082.73L1031.66 1082.62L1031.65 1082.51L1031.63 1082.39L1031.62 1082.28L1031.6 1082.16L1031.58 1082.05L1031.57 1081.94L1031.55 1081.82L1031.54 1081.71L1031.52 1081.59L1031.51 1081.47L1031.49 1081.36L1031.47 1081.24L1031.46 1081.13L1031.44 1081.01L1031.43 1080.89L1031.41 1080.78L1031.39 1080.66L1031.38 1080.54L1031.36 1080.42L1031.35 1080.31L1031.33 1080.19L1031.31 1080.07L1031.3 1079.95L1031.28 1079.83L1031.26 1079.72L1031.25 1079.6L1031.23 1079.48L1031.21 1079.36L1031.2 1079.24L1031.18 1079.12L1031.17 1079L1031.15 1078.88L1031.13 1078.76L1031.12 1078.64L1031.1 1078.52L1031.08 1078.4L1031.07 1078.28L1031.05 1078.15L1031.03 1078.03L1031.02 1077.91L1031 1077.79L1030.98 1077.67L1030.97 1077.55L1030.95 1077.43L1030.93 1077.3L1030.92 1077.18L1030.9 1077.06L1030.88 1076.94L1030.86 1076.81L1030.85 1076.69L1030.83 1076.57L1030.81 1076.44L1030.8 1076.32L1030.78 1076.2L1030.76 1076.07L1030.75 1075.95L1030.73 1075.83L1030.71 1075.7L1030.69 1075.58L1030.68 1075.46L1030.66 1075.33L1030.64 1075.21L1030.63 1075.08L1030.61 1074.96L1030.59 1074.83L1030.58 1074.71L1030.56 1074.58L1030.54 1074.46L1030.52 1074.34L1030.51 1074.21L1030.49 1074.09L1030.47 1073.96L1030.45 1073.84L1030.44 1073.71L1030.42 1073.58L1030.4 1073.46L1030.39 1073.33L1030.37 1073.21L1030.35 1073.08L1030.33 1072.96L1030.32 1072.83L1030.3 1072.71L1030.28 1072.58L1030.27 1072.46L1030.25 1072.33L1030.23 1072.2L1030.21 1072.08L1030.2 1071.95L1030.18 1071.83L1030.16 1071.7L1030.14 1071.57L1030.13 1071.45L1030.11 1071.32L1030.09 1071.2L1030.07 1071.07L1030.06 1070.94L1030.04 1070.82L1030.02 1070.69L1030.01 1070.57L1029.99 1070.44L1029.97 1070.31L1029.95 1070.19L1029.94 1070.06L1029.92 1069.94L1029.9 1069.81L1029.88 1069.68L1029.87 1069.56L1029.85 1069.43L1029.83 1069.31L1029.81 1069.18L1029.8 1069.06L1029.78 1068.93L1029.76 1068.8L1029.75 1068.68L1029.73 1068.55L1029.71 1068.43L1029.69 1068.3L1029.68 1068.18L1029.66 1068.05L1029.64 1067.93L1029.62 1067.8L1029.61 1067.67L1029.59 1067.55L1029.57 1067.42L1029.56 1067.3L1029.54 1067.17L1029.52 1067.05L1029.5 1066.92L1029.49 1066.8L1029.47 1066.67L1029.45 1066.55L1029.44 1066.43L1029.42 1066.3L1029.4 1066.18L1029.38 1066.05L1029.37 1065.93L1029.35 1065.8L1029.33 1065.68L1029.32 1065.56L1029.3 1065.43L1029.28 1065.31L1029.27 1065.19L1029.25 1065.06L1029.23 1064.94L1029.21 1064.82L1029.2 1064.69L1029.18 1064.57L1029.16 1064.45L1029.15 1064.32L1029.13 1064.2L1029.11 1064.08L1029.1 1063.96L1029.08 1063.83L1029.06 1063.71L1029.05 1063.59L1029.03 1063.47L1029.01 1063.35L1029 1063.23L1028.98 1063.1L1028.96 1062.98L1028.95 1062.86L1028.93 1062.74L1028.91 1062.62L1028.9 1062.5L1028.88 1062.38L1028.86 1062.26L1028.85 1062.14L1028.83 1062.02L1028.81 1061.9L1028.8 1061.78L1028.78 1061.66L1028.76 1061.54L1028.75 1061.43L1028.73 1061.31L1028.72 1061.19L1028.7 1061.07L1028.68 1060.95L1028.67 1060.83L1028.65 1060.72L1028.63 1060.6L1028.62 1060.48L1028.6 1060.37L1028.59 1060.25L1028.57 1060.13L1028.55 1060.02L1028.54 1059.9L1028.52 1059.79L1028.51 1059.67L1028.49 1059.55L1028.47 1059.44L1028.46 1059.32L1028.44 1059.21L1028.43 1059.1L1028.41 1058.98L1028.4 1058.87L1028.38 1058.75L1028.36 1058.64L1028.35 1058.53L1028.33 1058.42L1028.32 1058.3L1028.3 1058.19L1028.29 1058.08L1028.27 1057.97L1028.26 1057.86L1028.24 1057.74L1028.23 1057.63L1028.21 1057.52L1028.2 1057.41L1028.18 1057.3L1028.17 1057.19L1028.15 1057.08L1028.14 1056.97L1028.12 1056.87L1028.11 1056.76L1028.09 1056.65L1028.08 1056.54L1028.06 1056.43L1028.05 1056.33L1028.03 1056.22L1028.02 1056.11L1028 1056.01L1027.99 1055.9L1027.97 1055.79L1027.96 1055.69L1027.94 1055.58L1027.93 1055.48L1027.92 1055.38L1027.9 1055.27L1027.89 1055.17L1027.87 1055.06L1027.86 1054.96L1027.84 1054.86L1027.83 1054.76L1027.82 1054.66L1027.8 1054.55L1027.79 1054.45L1027.77 1054.35L1027.76 1054.25L1027.75 1054.15L1027.73 1054.05L1027.72 1053.95L1027.71 1053.85L1027.69 1053.75L1027.68 1053.66L1027.67 1053.56L1027.65 1053.46L1027.64 1053.36L1027.63 1053.27L1027.61 1053.17L1027.6 1053.08L1027.59 1052.98L1027.57 1052.89L1027.56 1052.79L1027.55 1052.7L1027.53 1052.6L1027.52 1052.51L1027.51 1052.42L1027.5 1052.32L1027.48 1052.23L1027.47 1052.14L1027.46 1052.05L1027.45 1051.96L1027.43 1051.87L1027.42 1051.78L1027.41 1051.69L1027.4 1051.6L1027.38 1051.51L1027.37 1051.42L1027.36 1051.33L1027.35 1051.25L1027.34 1051.16L1027.32 1051.07L1027.31 1050.99L1027.3 1050.9L1027.29 1050.82L1027.28 1050.73L1027.27 1050.65L1027.25 1050.57L1027.24 1050.48L1027.23 1050.4L1027.22 1050.32L1027.21 1050.24L1027.2 1050.16L1027.19 1050.07L1027.18 1049.99L1027.16 1049.91L1027.15 1049.84L1027.14 1049.76L1027.13 1049.68L1027.12 1049.6L1027.11 1049.52L1027.1 1049.45L1027.09 1049.37L1027.08 1049.29L1027.07 1049.22L1027.06 1049.15L1027.05 1049.07L1027.04 1049L1027.03 1048.92L1027.02 1048.85L1027.01 1048.78L1027 1048.71L1026.99 1048.64L1026.98 1048.57L1026.97 1048.5L1026.96 1048.43L1026.95 1048.36L1026.94 1048.29L1026.93 1048.22L1026.92 1048.16L1026.91 1048.09L1026.9 1048.02L1026.9 1047.96L1026.89 1047.89L1026.88 1047.83L1026.87 1047.77L1026.86 1047.7L1026.86 1047.69L1029.35 1047.35L1042.45 1045.54L1071.72 1041.52C1096.5 1038.11 1119.35 1055.43 1122.75 1080.21C1126.16 1104.99 1108.84 1127.83 1084.06 1131.24Z" fill="white" stroke="black" stroke-width="6"/>
<circle cx="1078.9" cy="1087.15" r="35.4508" transform="rotate(127.168 1078.9 1087.15)" fill="#64BDC2"/>
<path d="M1080.76 1071.93C1082.97 1071.93 1084.84 1072.31 1086.37 1073.06C1087.94 1073.8 1088.72 1074.76 1088.72 1075.91C1088.72 1076.42 1088.58 1076.86 1088.31 1077.24C1088.07 1077.61 1087.7 1077.8 1087.19 1077.8C1086.71 1077.8 1085.66 1077.42 1084.03 1076.68C1082.4 1075.89 1080.9 1075.5 1079.54 1075.5C1078.21 1075.5 1076.84 1075.93 1075.41 1076.78C1073.98 1077.63 1073.27 1078.67 1073.27 1079.89C1073.27 1081.56 1074.13 1082.78 1075.87 1083.56C1077.16 1084.14 1079.01 1084.67 1081.43 1085.14C1083.84 1085.58 1085.81 1086.52 1087.34 1087.95C1088.87 1089.34 1089.64 1091.47 1089.64 1094.32C1089.64 1098.67 1088.33 1101.89 1085.71 1103.96C1084.25 1105.12 1082.17 1105.7 1079.49 1105.7C1076.84 1105.7 1074.18 1104.96 1071.53 1103.5C1069.8 1102.58 1068.93 1101.67 1068.93 1100.75C1068.93 1100.41 1069.07 1100.03 1069.34 1099.63C1069.65 1099.22 1070.05 1098.88 1070.56 1098.61C1071.07 1098.33 1071.53 1098.3 1071.94 1098.5C1072.38 1098.67 1073.08 1099 1074.03 1099.47C1074.98 1099.95 1075.68 1100.27 1076.12 1100.44C1077.55 1100.99 1078.89 1101.26 1080.15 1101.26C1081.41 1101.26 1082.62 1100.65 1083.77 1099.42C1084.96 1098.16 1085.56 1096.63 1085.56 1094.83C1085.56 1092.45 1084.37 1090.79 1081.99 1089.83C1080.83 1089.36 1079.52 1089 1078.06 1088.76C1075.03 1088.22 1072.76 1087.32 1071.23 1086.06C1069.7 1084.77 1068.93 1082.83 1068.93 1080.25C1068.93 1077.66 1070.04 1075.64 1072.25 1074.18C1074.46 1072.68 1077.3 1071.93 1080.76 1071.93Z" fill="white"/>
<path d="M1081.69 515.647C1104.62 525.634 1115.12 552.318 1105.13 575.247L1105.1 575.313L1105.07 575.38L1105.04 575.447L1105.01 575.515L1104.98 575.583L1104.95 575.651L1104.92 575.72L1104.89 575.79L1104.86 575.86L1104.83 575.93L1104.8 576.001L1104.77 576.073L1104.74 576.145L1104.71 576.217L1104.68 576.29L1104.64 576.363L1104.61 576.437L1104.58 576.511L1104.55 576.586L1104.51 576.661L1104.48 576.737L1104.45 576.813L1104.41 576.889L1104.38 576.966L1104.35 577.043L1104.31 577.121L1104.28 577.199L1104.24 577.278L1104.21 577.357L1104.18 577.437L1104.14 577.517L1104.11 577.597L1104.07 577.678L1104.04 577.759L1104 577.84L1103.96 577.922L1103.93 578.005L1103.89 578.088L1103.86 578.171L1103.82 578.255L1103.78 578.339L1103.75 578.423L1103.71 578.508L1103.67 578.593L1103.63 578.679L1103.6 578.765L1103.56 578.851L1103.52 578.938L1103.48 579.025L1103.45 579.113L1103.41 579.201L1103.37 579.289L1103.33 579.378L1103.29 579.467L1103.25 579.556L1103.21 579.646L1103.17 579.736L1103.14 579.826L1103.1 579.917L1103.06 580.009L1103.02 580.1L1102.98 580.192L1102.94 580.284L1102.9 580.377L1102.85 580.47L1102.81 580.563L1102.77 580.657L1102.73 580.751L1102.69 580.845L1102.65 580.939L1102.61 581.034L1102.57 581.13L1102.53 581.225L1102.48 581.321L1102.44 581.417L1102.4 581.514L1102.36 581.611L1102.32 581.708L1102.27 581.805L1102.23 581.903L1102.19 582.001L1102.15 582.099L1102.1 582.198L1102.06 582.297L1102.02 582.396L1101.97 582.496L1101.93 582.596L1101.89 582.696L1101.84 582.796L1101.8 582.897L1101.75 582.998L1101.71 583.099L1101.67 583.201L1101.62 583.302L1101.58 583.404L1101.53 583.507L1101.49 583.609L1101.44 583.712L1101.4 583.815L1101.35 583.919L1101.31 584.022L1101.26 584.126L1101.22 584.23L1101.17 584.335L1101.13 584.439L1101.08 584.544L1101.03 584.649L1100.99 584.754L1100.94 584.86L1100.9 584.966L1100.85 585.072L1100.8 585.178L1100.76 585.284L1100.71 585.391L1100.66 585.498L1100.62 585.605L1100.57 585.712L1100.52 585.82L1100.48 585.928L1100.43 586.036L1100.38 586.144L1100.34 586.252L1100.29 586.361L1100.24 586.469L1100.19 586.578L1100.15 586.688L1100.1 586.797L1100.05 586.906L1100 587.016L1099.96 587.126L1099.91 587.236L1099.86 587.346L1099.81 587.457L1099.76 587.567L1099.72 587.678L1099.67 587.789L1099.62 587.9L1099.57 588.011L1099.52 588.123L1099.47 588.234L1099.42 588.346L1099.38 588.458L1099.33 588.57L1099.28 588.682L1099.23 588.795L1099.18 588.907L1099.13 589.02L1099.08 589.133L1099.03 589.245L1098.98 589.358L1098.93 589.472L1098.88 589.585L1098.84 589.698L1098.79 589.812L1098.74 589.926L1098.69 590.039L1098.64 590.153L1098.59 590.267L1098.54 590.381L1098.49 590.496L1098.44 590.61L1098.39 590.724L1098.34 590.839L1098.29 590.954L1098.24 591.068L1098.19 591.183L1098.14 591.298L1098.09 591.413L1098.04 591.528L1097.99 591.643L1097.94 591.759L1097.89 591.874L1097.84 591.989L1097.79 592.105L1097.74 592.22L1097.69 592.336L1097.64 592.452L1097.59 592.568L1097.54 592.683L1097.48 592.799L1097.43 592.915L1097.38 593.031L1097.33 593.147L1097.28 593.263L1097.23 593.38L1097.18 593.496L1097.13 593.612L1097.08 593.728L1097.03 593.845L1096.98 593.961L1096.93 594.077L1096.88 594.194L1096.83 594.31L1096.78 594.427L1096.73 594.543L1096.67 594.66L1096.62 594.776L1096.57 594.893L1096.52 595.009L1096.47 595.126L1096.42 595.243L1096.37 595.359L1096.32 595.476L1096.27 595.592L1096.22 595.709L1096.17 595.826L1096.12 595.942L1096.07 596.059L1096.01 596.175L1095.96 596.292L1095.91 596.408L1095.86 596.525L1095.81 596.642L1095.76 596.758L1095.71 596.874L1095.66 596.991L1095.61 597.107L1095.56 597.224L1095.51 597.34L1095.46 597.456L1095.41 597.573L1095.36 597.689L1095.3 597.805L1095.25 597.921L1095.2 598.037L1095.15 598.153L1095.1 598.269L1095.05 598.385L1095 598.501L1094.95 598.617L1094.9 598.732L1094.85 598.848L1094.8 598.963L1094.75 599.079L1094.7 599.194L1094.65 599.31L1094.6 599.425L1094.55 599.54L1094.5 599.655L1094.45 599.77L1094.4 599.885L1094.35 600L1094.3 600.115L1094.25 600.229L1094.2 600.344L1094.15 600.458L1094.1 600.573L1094.05 600.687L1094 600.801L1093.95 600.915L1093.9 601.029L1093.85 601.143L1093.8 601.256L1093.75 601.37L1093.7 601.483L1093.65 601.597L1093.6 601.71L1093.55 601.823L1093.51 601.936L1093.46 602.049L1093.41 602.161L1093.36 602.274L1093.31 602.386L1093.26 602.498L1093.21 602.61L1093.16 602.722L1093.11 602.834L1093.07 602.945L1093.02 603.057L1092.97 603.168L1092.92 603.279L1092.87 603.39L1092.82 603.501L1092.78 603.612L1092.73 603.722L1092.68 603.832L1092.63 603.942L1092.58 604.052L1092.54 604.162L1092.49 604.271L1092.44 604.381L1092.39 604.49L1092.35 604.599L1092.3 604.708L1092.25 604.816L1092.2 604.925L1092.16 605.033L1092.11 605.141L1092.06 605.248L1092.02 605.356L1091.97 605.463L1091.92 605.57L1091.88 605.677L1091.83 605.784L1091.78 605.89L1091.74 605.997L1091.69 606.103L1091.64 606.208L1091.6 606.314L1091.55 606.419L1091.51 606.524L1091.46 606.629L1091.42 606.734L1091.37 606.838L1091.32 606.942L1091.28 607.046L1091.23 607.15L1091.19 607.253L1091.14 607.356L1091.1 607.459L1091.06 607.562L1091.01 607.664L1090.97 607.766L1090.92 607.868L1090.88 607.969L1090.83 608.07L1090.79 608.171L1090.75 608.272L1090.7 608.373L1090.66 608.473L1090.61 608.572L1090.57 608.672L1090.53 608.771L1090.49 608.87L1090.44 608.969L1090.4 609.067L1090.36 609.165L1090.31 609.263L1090.27 609.361L1090.23 609.458L1090.19 609.555L1090.15 609.651L1090.1 609.747L1090.06 609.843L1090.02 609.939L1089.98 610.034L1089.94 610.129L1089.9 610.224L1089.85 610.318L1089.81 610.412L1089.77 610.505L1089.73 610.599L1089.69 610.692L1089.65 610.784L1089.61 610.876L1089.57 610.968L1089.53 611.06L1089.49 611.151L1089.45 611.242L1089.41 611.332L1089.37 611.423L1089.33 611.512L1089.3 611.602L1089.26 611.691L1089.22 611.779L1089.18 611.868L1089.14 611.956L1089.1 612.043L1089.07 612.13L1089.03 612.217L1088.99 612.304L1088.95 612.39L1088.92 612.475L1088.88 612.56L1088.84 612.645L1088.8 612.73L1088.77 612.814L1088.73 612.897L1088.7 612.981L1088.66 613.063L1088.62 613.146L1088.59 613.228L1088.55 613.31L1088.52 613.391L1088.48 613.472L1088.45 613.552L1088.41 613.632L1088.38 613.711L1088.34 613.79L1088.31 613.869L1088.27 613.947L1088.24 614.025L1088.21 614.102L1088.17 614.179L1088.14 614.256L1088.11 614.332L1088.07 614.407L1088.04 614.482L1088.01 614.557L1087.98 614.631L1087.94 614.705L1087.91 614.778L1087.88 614.851L1087.85 614.924L1087.82 614.996L1087.79 615.067L1087.76 615.138L1087.72 615.208L1087.69 615.278L1087.66 615.348L1087.63 615.417L1087.6 615.486L1087.57 615.554L1087.54 615.621L1087.52 615.688L1087.49 615.755L1087.46 615.821L1087.43 615.887L1087.4 615.952L1087.37 616.016L1087.34 616.081L1087.32 616.144L1087.29 616.207L1087.26 616.27L1087.24 616.332L1087.21 616.393L1087.18 616.454L1087.16 616.515L1087.13 616.575L1087.1 616.634L1087.08 616.693L1087.05 616.752L1087.05 616.765L1084.74 615.759L1072.62 610.48L1045.53 598.682C1022.6 588.696 1012.11 562.012 1022.09 539.082C1032.08 516.152 1058.76 505.66 1081.69 515.647Z" fill="white" stroke="black" stroke-width="6"/>
<path d="M1083.43 510.653C1106.36 520.639 1116.85 547.323 1106.86 570.253L1106.83 570.319L1106.8 570.386L1106.78 570.453L1106.75 570.52L1106.72 570.588L1106.69 570.657L1106.66 570.726L1106.63 570.796L1106.6 570.866L1106.56 570.936L1106.53 571.007L1106.5 571.078L1106.47 571.15L1106.44 571.223L1106.41 571.296L1106.38 571.369L1106.34 571.443L1106.31 571.517L1106.28 571.592L1106.25 571.667L1106.21 571.742L1106.18 571.818L1106.15 571.895L1106.11 571.972L1106.08 572.049L1106.05 572.127L1106.01 572.205L1105.98 572.284L1105.94 572.363L1105.91 572.442L1105.87 572.522L1105.84 572.602L1105.8 572.683L1105.77 572.764L1105.73 572.846L1105.7 572.928L1105.66 573.01L1105.63 573.093L1105.59 573.177L1105.55 573.26L1105.52 573.344L1105.48 573.429L1105.44 573.514L1105.41 573.599L1105.37 573.684L1105.33 573.77L1105.29 573.857L1105.25 573.944L1105.22 574.031L1105.18 574.118L1105.14 574.206L1105.1 574.295L1105.06 574.383L1105.02 574.472L1104.99 574.562L1104.95 574.651L1104.91 574.742L1104.87 574.832L1104.83 574.923L1104.79 575.014L1104.75 575.106L1104.71 575.198L1104.67 575.29L1104.63 575.382L1104.59 575.475L1104.55 575.569L1104.51 575.662L1104.47 575.756L1104.42 575.85L1104.38 575.945L1104.34 576.04L1104.3 576.135L1104.26 576.231L1104.22 576.327L1104.18 576.423L1104.13 576.519L1104.09 576.616L1104.05 576.713L1104.01 576.811L1103.96 576.909L1103.92 577.007L1103.88 577.105L1103.83 577.204L1103.79 577.303L1103.75 577.402L1103.71 577.501L1103.66 577.601L1103.62 577.701L1103.57 577.802L1103.53 577.902L1103.49 578.003L1103.44 578.105L1103.4 578.206L1103.35 578.308L1103.31 578.41L1103.27 578.512L1103.22 578.615L1103.18 578.718L1103.13 578.821L1103.09 578.924L1103.04 579.028L1103 579.132L1102.95 579.236L1102.9 579.34L1102.86 579.445L1102.81 579.55L1102.77 579.655L1102.72 579.76L1102.68 579.865L1102.63 579.971L1102.58 580.077L1102.54 580.183L1102.49 580.29L1102.44 580.397L1102.4 580.503L1102.35 580.611L1102.3 580.718L1102.26 580.825L1102.21 580.933L1102.16 581.041L1102.12 581.149L1102.07 581.258L1102.02 581.366L1101.97 581.475L1101.93 581.584L1101.88 581.693L1101.83 581.802L1101.78 581.912L1101.74 582.022L1101.69 582.132L1101.64 582.242L1101.59 582.352L1101.54 582.462L1101.5 582.573L1101.45 582.684L1101.4 582.795L1101.35 582.906L1101.3 583.017L1101.25 583.128L1101.21 583.24L1101.16 583.352L1101.11 583.464L1101.06 583.576L1101.01 583.688L1100.96 583.8L1100.91 583.913L1100.86 584.025L1100.81 584.138L1100.77 584.251L1100.72 584.364L1100.67 584.477L1100.62 584.59L1100.57 584.704L1100.52 584.817L1100.47 584.931L1100.42 585.045L1100.37 585.159L1100.32 585.273L1100.27 585.387L1100.22 585.501L1100.17 585.615L1100.12 585.73L1100.07 585.844L1100.02 585.959L1099.97 586.074L1099.92 586.189L1099.87 586.304L1099.82 586.419L1099.77 586.534L1099.72 586.649L1099.67 586.764L1099.62 586.88L1099.57 586.995L1099.52 587.11L1099.47 587.226L1099.42 587.342L1099.37 587.457L1099.32 587.573L1099.27 587.689L1099.22 587.805L1099.17 587.921L1099.12 588.037L1099.07 588.153L1099.02 588.269L1098.97 588.385L1098.91 588.501L1098.86 588.618L1098.81 588.734L1098.76 588.85L1098.71 588.967L1098.66 589.083L1098.61 589.199L1098.56 589.316L1098.51 589.432L1098.46 589.549L1098.41 589.665L1098.36 589.782L1098.31 589.898L1098.26 590.015L1098.2 590.132L1098.15 590.248L1098.1 590.365L1098.05 590.481L1098 590.598L1097.95 590.715L1097.9 590.831L1097.85 590.948L1097.8 591.064L1097.75 591.181L1097.7 591.298L1097.65 591.414L1097.6 591.531L1097.54 591.647L1097.49 591.764L1097.44 591.88L1097.39 591.996L1097.34 592.113L1097.29 592.229L1097.24 592.346L1097.19 592.462L1097.14 592.578L1097.09 592.694L1097.04 592.81L1096.99 592.927L1096.94 593.043L1096.89 593.159L1096.84 593.275L1096.78 593.39L1096.73 593.506L1096.68 593.622L1096.63 593.738L1096.58 593.853L1096.53 593.969L1096.48 594.085L1096.43 594.2L1096.38 594.315L1096.33 594.431L1096.28 594.546L1096.23 594.661L1096.18 594.776L1096.13 594.891L1096.08 595.006L1096.03 595.12L1095.98 595.235L1095.93 595.35L1095.88 595.464L1095.83 595.578L1095.78 595.693L1095.73 595.807L1095.68 595.921L1095.63 596.035L1095.58 596.148L1095.53 596.262L1095.48 596.376L1095.44 596.489L1095.39 596.602L1095.34 596.715L1095.29 596.828L1095.24 596.941L1095.19 597.054L1095.14 597.167L1095.09 597.279L1095.04 597.392L1094.99 597.504L1094.94 597.616L1094.9 597.728L1094.85 597.839L1094.8 597.951L1094.75 598.062L1094.7 598.174L1094.65 598.285L1094.6 598.396L1094.56 598.507L1094.51 598.617L1094.46 598.728L1094.41 598.838L1094.36 598.948L1094.32 599.058L1094.27 599.167L1094.22 599.277L1094.17 599.386L1094.13 599.495L1094.08 599.604L1094.03 599.713L1093.98 599.822L1093.94 599.93L1093.89 600.038L1093.84 600.146L1093.8 600.254L1093.75 600.362L1093.7 600.469L1093.66 600.576L1093.61 600.683L1093.56 600.79L1093.52 600.896L1093.47 601.002L1093.42 601.108L1093.38 601.214L1093.33 601.32L1093.29 601.425L1093.24 601.53L1093.19 601.635L1093.15 601.739L1093.1 601.844L1093.06 601.948L1093.01 602.052L1092.97 602.155L1092.92 602.259L1092.88 602.362L1092.83 602.465L1092.79 602.567L1092.74 602.669L1092.7 602.772L1092.65 602.873L1092.61 602.975L1092.57 603.076L1092.52 603.177L1092.48 603.278L1092.43 603.378L1092.39 603.478L1092.35 603.578L1092.3 603.678L1092.26 603.777L1092.22 603.876L1092.18 603.974L1092.13 604.073L1092.09 604.171L1092.05 604.269L1092 604.366L1091.96 604.463L1091.92 604.56L1091.88 604.657L1091.84 604.753L1091.79 604.849L1091.75 604.944L1091.71 605.04L1091.67 605.135L1091.63 605.229L1091.59 605.323L1091.55 605.417L1091.51 605.511L1091.47 605.604L1091.42 605.697L1091.38 605.79L1091.34 605.882L1091.3 605.974L1091.26 606.065L1091.22 606.157L1091.19 606.247L1091.15 606.338L1091.11 606.428L1091.07 606.518L1091.03 606.607L1090.99 606.696L1090.95 606.785L1090.91 606.873L1090.87 606.961L1090.84 607.049L1090.8 607.136L1090.76 607.223L1090.72 607.309L1090.69 607.395L1090.65 607.481L1090.61 607.566L1090.57 607.651L1090.54 607.735L1090.5 607.819L1090.46 607.903L1090.43 607.986L1090.39 608.069L1090.36 608.151L1090.32 608.234L1090.28 608.315L1090.25 608.396L1090.21 608.477L1090.18 608.557L1090.14 608.637L1090.11 608.717L1090.08 608.796L1090.04 608.875L1090.01 608.953L1089.97 609.031L1089.94 609.108L1089.91 609.185L1089.87 609.261L1089.84 609.337L1089.81 609.413L1089.77 609.488L1089.74 609.563L1089.71 609.637L1089.68 609.711L1089.64 609.784L1089.61 609.857L1089.58 609.929L1089.55 610.001L1089.52 610.073L1089.49 610.144L1089.46 610.214L1089.43 610.284L1089.4 610.354L1089.37 610.423L1089.34 610.491L1089.31 610.559L1089.28 610.627L1089.25 610.694L1089.22 610.761L1089.19 610.827L1089.16 610.892L1089.13 610.957L1089.11 611.022L1089.08 611.086L1089.05 611.15L1089.02 611.213L1089 611.275L1088.97 611.337L1088.94 611.399L1088.91 611.46L1088.89 611.521L1088.86 611.58L1088.84 611.64L1088.81 611.699L1088.79 611.757L1088.78 611.771L1086.47 610.765L1074.35 605.485L1047.26 593.688C1024.33 583.701 1013.84 557.017 1023.83 534.088C1033.81 511.158 1060.5 500.666 1083.43 510.653Z" fill="white" stroke="black" stroke-width="6"/>
<circle cx="1064.88" cy="550.99" r="35.4508" transform="rotate(-21.4649 1064.88 550.99)" fill="#28AD3D"/>
<path d="M1067.63 537.155C1067.63 536.781 1067.9 536.407 1068.45 536.033C1068.99 535.659 1069.52 535.472 1070.03 535.472C1070.57 535.472 1070.98 535.591 1071.25 535.829C1071.56 536.067 1071.73 536.356 1071.76 536.696C1072.48 545.876 1072.83 551.69 1072.83 554.138C1072.83 556.552 1072.8 558.371 1072.73 559.595C1072.66 560.819 1072.49 562.145 1072.22 563.573C1071.95 564.967 1071.56 566.072 1071.05 566.888C1069.93 568.792 1068.12 569.744 1065.64 569.744C1063.16 569.744 1061.14 568.928 1059.57 567.296C1058.01 565.63 1057.23 563.25 1057.23 560.156C1057.23 559.646 1057.48 559.187 1057.99 558.779C1058.54 558.337 1059.11 558.116 1059.73 558.116C1060.47 558.116 1060.93 558.813 1061.1 560.207C1061.55 564.151 1063.02 566.123 1065.54 566.123C1066.19 566.123 1066.73 565.919 1067.17 565.511C1067.65 565.069 1068.01 564.559 1068.24 563.981C1068.48 563.369 1068.67 562.57 1068.8 561.584C1069.01 560.156 1069.11 558.456 1069.11 556.484C1069.11 554.478 1068.86 550.84 1068.35 545.57C1067.87 540.3 1067.63 537.495 1067.63 537.155Z" fill="white"/>
</svg>
