<svg width="1512" height="2471" viewBox="0 0 1512 2471" fill="none" xmlns="http://www.w3.org/2000/svg">
<path d="M1081.69 515.647C1104.62 525.634 1115.12 552.318 1105.13 575.247L1105.1 575.313L1105.07 575.38L1105.04 575.447L1105.01 575.515L1104.98 575.583L1104.95 575.651L1104.92 575.72L1104.89 575.79L1104.86 575.86L1104.83 575.93L1104.8 576.001L1104.77 576.073L1104.74 576.145L1104.71 576.217L1104.68 576.29L1104.64 576.363L1104.61 576.437L1104.58 576.511L1104.55 576.586L1104.51 576.661L1104.48 576.737L1104.45 576.813L1104.41 576.889L1104.38 576.966L1104.35 577.043L1104.31 577.121L1104.28 577.199L1104.24 577.278L1104.21 577.357L1104.18 577.437L1104.14 577.516L1104.11 577.597L1104.07 577.678L1104.04 577.759L1104 577.84L1103.96 577.922L1103.93 578.005L1103.89 578.088L1103.86 578.171L1103.82 578.255L1103.78 578.339L1103.75 578.423L1103.71 578.508L1103.67 578.593L1103.63 578.679L1103.6 578.765L1103.56 578.851L1103.52 578.938L1103.48 579.025L1103.45 579.113L1103.41 579.201L1103.37 579.289L1103.33 579.378L1103.29 579.467L1103.25 579.556L1103.21 579.646L1103.17 579.736L1103.14 579.826L1103.1 579.917L1103.06 580.008L1103.02 580.1L1102.98 580.192L1102.94 580.284L1102.9 580.377L1102.85 580.47L1102.81 580.563L1102.77 580.657L1102.73 580.75L1102.69 580.845L1102.65 580.939L1102.61 581.034L1102.57 581.13L1102.53 581.225L1102.48 581.321L1102.44 581.417L1102.4 581.514L1102.36 581.611L1102.32 581.708L1102.27 581.805L1102.23 581.903L1102.19 582.001L1102.15 582.099L1102.1 582.198L1102.06 582.297L1102.02 582.396L1101.97 582.496L1101.93 582.596L1101.89 582.696L1101.84 582.796L1101.8 582.897L1101.75 582.998L1101.71 583.099L1101.67 583.201L1101.62 583.302L1101.58 583.404L1101.53 583.507L1101.49 583.609L1101.44 583.712L1101.4 583.815L1101.35 583.919L1101.31 584.022L1101.26 584.126L1101.22 584.23L1101.17 584.334L1101.13 584.439L1101.08 584.544L1101.03 584.649L1100.99 584.754L1100.94 584.86L1100.9 584.966L1100.85 585.072L1100.8 585.178L1100.76 585.284L1100.71 585.391L1100.66 585.498L1100.62 585.605L1100.57 585.712L1100.52 585.82L1100.48 585.928L1100.43 586.036L1100.38 586.144L1100.34 586.252L1100.29 586.361L1100.24 586.469L1100.19 586.578L1100.15 586.688L1100.1 586.797L1100.05 586.906L1100 587.016L1099.96 587.126L1099.91 587.236L1099.86 587.346L1099.81 587.457L1099.76 587.567L1099.72 587.678L1099.67 587.789L1099.62 587.9L1099.57 588.011L1099.52 588.123L1099.47 588.234L1099.42 588.346L1099.38 588.458L1099.33 588.57L1099.28 588.682L1099.23 588.795L1099.18 588.907L1099.13 589.02L1099.08 589.132L1099.03 589.245L1098.98 589.358L1098.93 589.472L1098.88 589.585L1098.84 589.698L1098.79 589.812L1098.74 589.925L1098.69 590.039L1098.64 590.153L1098.59 590.267L1098.54 590.381L1098.49 590.496L1098.44 590.61L1098.39 590.724L1098.34 590.839L1098.29 590.953L1098.24 591.068L1098.19 591.183L1098.14 591.298L1098.09 591.413L1098.04 591.528L1097.99 591.643L1097.94 591.759L1097.89 591.874L1097.84 591.989L1097.79 592.105L1097.74 592.22L1097.69 592.336L1097.64 592.452L1097.59 592.568L1097.54 592.683L1097.48 592.799L1097.43 592.915L1097.38 593.031L1097.33 593.147L1097.28 593.263L1097.23 593.38L1097.18 593.496L1097.13 593.612L1097.08 593.728L1097.03 593.845L1096.98 593.961L1096.93 594.077L1096.88 594.194L1096.83 594.31L1096.78 594.427L1096.73 594.543L1096.67 594.66L1096.62 594.776L1096.57 594.893L1096.52 595.009L1096.47 595.126L1096.42 595.243L1096.37 595.359L1096.32 595.476L1096.27 595.592L1096.22 595.709L1096.17 595.826L1096.12 595.942L1096.07 596.059L1096.01 596.175L1095.96 596.292L1095.91 596.408L1095.86 596.525L1095.81 596.641L1095.76 596.758L1095.71 596.874L1095.66 596.991L1095.61 597.107L1095.56 597.224L1095.51 597.34L1095.46 597.456L1095.41 597.572L1095.36 597.689L1095.3 597.805L1095.25 597.921L1095.2 598.037L1095.15 598.153L1095.1 598.269L1095.05 598.385L1095 598.501L1094.95 598.616L1094.9 598.732L1094.85 598.848L1094.8 598.963L1094.75 599.079L1094.7 599.194L1094.65 599.31L1094.6 599.425L1094.55 599.54L1094.5 599.655L1094.45 599.77L1094.4 599.885L1094.35 600L1094.3 600.115L1094.25 600.229L1094.2 600.344L1094.15 600.458L1094.1 600.573L1094.05 600.687L1094 600.801L1093.95 600.915L1093.9 601.029L1093.85 601.143L1093.8 601.256L1093.75 601.37L1093.7 601.483L1093.65 601.597L1093.6 601.71L1093.55 601.823L1093.51 601.936L1093.46 602.048L1093.41 602.161L1093.36 602.274L1093.31 602.386L1093.26 602.498L1093.21 602.61L1093.16 602.722L1093.11 602.834L1093.07 602.945L1093.02 603.057L1092.97 603.168L1092.92 603.279L1092.87 603.39L1092.82 603.501L1092.78 603.611L1092.73 603.722L1092.68 603.832L1092.63 603.942L1092.58 604.052L1092.54 604.162L1092.49 604.271L1092.44 604.381L1092.39 604.49L1092.35 604.599L1092.3 604.708L1092.25 604.816L1092.2 604.925L1092.16 605.033L1092.11 605.141L1092.06 605.248L1092.02 605.356L1091.97 605.463L1091.92 605.57L1091.88 605.677L1091.83 605.784L1091.78 605.89L1091.74 605.997L1091.69 606.103L1091.64 606.208L1091.6 606.314L1091.55 606.419L1091.51 606.524L1091.46 606.629L1091.42 606.734L1091.37 606.838L1091.32 606.942L1091.28 607.046L1091.23 607.15L1091.19 607.253L1091.14 607.356L1091.1 607.459L1091.06 607.562L1091.01 607.664L1090.97 607.766L1090.92 607.868L1090.88 607.969L1090.83 608.07L1090.79 608.171L1090.75 608.272L1090.7 608.372L1090.66 608.473L1090.61 608.572L1090.57 608.672L1090.53 608.771L1090.49 608.87L1090.44 608.969L1090.4 609.067L1090.36 609.165L1090.31 609.263L1090.27 609.36L1090.23 609.458L1090.19 609.554L1090.15 609.651L1090.1 609.747L1090.06 609.843L1090.02 609.939L1089.98 610.034L1089.94 610.129L1089.9 610.223L1089.85 610.318L1089.81 610.412L1089.77 610.505L1089.73 610.599L1089.69 610.692L1089.65 610.784L1089.61 610.876L1089.57 610.968L1089.53 611.06L1089.49 611.151L1089.45 611.242L1089.41 611.332L1089.37 611.422L1089.33 611.512L1089.3 611.602L1089.26 611.691L1089.22 611.779L1089.18 611.868L1089.14 611.956L1089.1 612.043L1089.07 612.13L1089.03 612.217L1088.99 612.303L1088.95 612.389L1088.92 612.475L1088.88 612.56L1088.84 612.645L1088.8 612.73L1088.77 612.814L1088.73 612.897L1088.7 612.981L1088.66 613.063L1088.62 613.146L1088.59 613.228L1088.55 613.309L1088.52 613.391L1088.48 613.471L1088.45 613.552L1088.41 613.632L1088.38 613.711L1088.34 613.79L1088.31 613.869L1088.27 613.947L1088.24 614.025L1088.21 614.102L1088.17 614.179L1088.14 614.256L1088.11 614.332L1088.07 614.407L1088.04 614.482L1088.01 614.557L1087.98 614.631L1087.94 614.705L1087.91 614.778L1087.88 614.851L1087.85 614.924L1087.82 614.996L1087.79 615.067L1087.76 615.138L1087.72 615.208L1087.69 615.278L1087.66 615.348L1087.63 615.417L1087.6 615.486L1087.57 615.554L1087.54 615.621L1087.52 615.688L1087.49 615.755L1087.46 615.821L1087.43 615.887L1087.4 615.952L1087.37 616.016L1087.34 616.081L1087.32 616.144L1087.29 616.207L1087.26 616.27L1087.24 616.332L1087.21 616.393L1087.18 616.454L1087.16 616.515L1087.13 616.575L1087.1 616.634L1087.08 616.693L1087.05 616.752L1087.05 616.765L1084.74 615.759L1072.62 610.48L1045.53 598.682C1022.6 588.696 1012.11 562.012 1022.09 539.082C1032.08 516.152 1058.76 505.66 1081.69 515.647Z" fill="white" stroke="black" stroke-width="6"/>
<path d="M1083.43 510.652C1106.36 520.639 1116.85 547.323 1106.86 570.253L1106.83 570.319L1106.8 570.386L1106.78 570.453L1106.75 570.52L1106.72 570.588L1106.69 570.657L1106.66 570.726L1106.63 570.795L1106.6 570.866L1106.56 570.936L1106.53 571.007L1106.5 571.078L1106.47 571.15L1106.44 571.223L1106.41 571.296L1106.38 571.369L1106.34 571.443L1106.31 571.517L1106.28 571.591L1106.25 571.667L1106.21 571.742L1106.18 571.818L1106.15 571.895L1106.11 571.972L1106.08 572.049L1106.05 572.127L1106.01 572.205L1105.98 572.284L1105.94 572.363L1105.91 572.442L1105.87 572.522L1105.84 572.602L1105.8 572.683L1105.77 572.764L1105.73 572.846L1105.7 572.928L1105.66 573.01L1105.63 573.093L1105.59 573.177L1105.55 573.26L1105.52 573.344L1105.48 573.429L1105.44 573.514L1105.41 573.599L1105.37 573.684L1105.33 573.77L1105.29 573.857L1105.25 573.944L1105.22 574.031L1105.18 574.118L1105.14 574.206L1105.1 574.295L1105.06 574.383L1105.02 574.472L1104.99 574.562L1104.95 574.651L1104.91 574.742L1104.87 574.832L1104.83 574.923L1104.79 575.014L1104.75 575.106L1104.71 575.197L1104.67 575.29L1104.63 575.382L1104.59 575.475L1104.55 575.569L1104.51 575.662L1104.47 575.756L1104.42 575.85L1104.38 575.945L1104.34 576.04L1104.3 576.135L1104.26 576.231L1104.22 576.327L1104.18 576.423L1104.13 576.519L1104.09 576.616L1104.05 576.713L1104.01 576.811L1103.96 576.909L1103.92 577.007L1103.88 577.105L1103.83 577.204L1103.79 577.303L1103.75 577.402L1103.71 577.501L1103.66 577.601L1103.62 577.701L1103.57 577.802L1103.53 577.902L1103.49 578.003L1103.44 578.105L1103.4 578.206L1103.35 578.308L1103.31 578.41L1103.27 578.512L1103.22 578.615L1103.18 578.718L1103.13 578.821L1103.09 578.924L1103.04 579.028L1103 579.132L1102.95 579.236L1102.9 579.34L1102.86 579.445L1102.81 579.549L1102.77 579.655L1102.72 579.76L1102.68 579.865L1102.63 579.971L1102.58 580.077L1102.54 580.183L1102.49 580.29L1102.44 580.397L1102.4 580.503L1102.35 580.611L1102.3 580.718L1102.26 580.825L1102.21 580.933L1102.16 581.041L1102.12 581.149L1102.07 581.258L1102.02 581.366L1101.97 581.475L1101.93 581.584L1101.88 581.693L1101.83 581.802L1101.78 581.912L1101.74 582.022L1101.69 582.132L1101.64 582.242L1101.59 582.352L1101.54 582.462L1101.5 582.573L1101.45 582.684L1101.4 582.795L1101.35 582.906L1101.3 583.017L1101.25 583.128L1101.21 583.24L1101.16 583.352L1101.11 583.464L1101.06 583.576L1101.01 583.688L1100.96 583.8L1100.91 583.913L1100.86 584.025L1100.81 584.138L1100.77 584.251L1100.72 584.364L1100.67 584.477L1100.62 584.59L1100.57 584.704L1100.52 584.817L1100.47 584.931L1100.42 585.045L1100.37 585.159L1100.32 585.273L1100.27 585.387L1100.22 585.501L1100.17 585.615L1100.12 585.73L1100.07 585.844L1100.02 585.959L1099.97 586.074L1099.92 586.189L1099.87 586.304L1099.82 586.419L1099.77 586.534L1099.72 586.649L1099.67 586.764L1099.62 586.879L1099.57 586.995L1099.52 587.11L1099.47 587.226L1099.42 587.342L1099.37 587.457L1099.32 587.573L1099.27 587.689L1099.22 587.805L1099.17 587.921L1099.12 588.037L1099.07 588.153L1099.02 588.269L1098.97 588.385L1098.91 588.501L1098.86 588.618L1098.81 588.734L1098.76 588.85L1098.71 588.967L1098.66 589.083L1098.61 589.199L1098.56 589.316L1098.51 589.432L1098.46 589.549L1098.41 589.665L1098.36 589.782L1098.31 589.898L1098.26 590.015L1098.2 590.132L1098.15 590.248L1098.1 590.365L1098.05 590.481L1098 590.598L1097.95 590.715L1097.9 590.831L1097.85 590.948L1097.8 591.064L1097.75 591.181L1097.7 591.297L1097.65 591.414L1097.6 591.531L1097.54 591.647L1097.49 591.764L1097.44 591.88L1097.39 591.996L1097.34 592.113L1097.29 592.229L1097.24 592.345L1097.19 592.462L1097.14 592.578L1097.09 592.694L1097.04 592.81L1096.99 592.927L1096.94 593.043L1096.89 593.159L1096.84 593.275L1096.78 593.39L1096.73 593.506L1096.68 593.622L1096.63 593.738L1096.58 593.853L1096.53 593.969L1096.48 594.084L1096.43 594.2L1096.38 594.315L1096.33 594.431L1096.28 594.546L1096.23 594.661L1096.18 594.776L1096.13 594.891L1096.08 595.006L1096.03 595.12L1095.98 595.235L1095.93 595.349L1095.88 595.464L1095.83 595.578L1095.78 595.693L1095.73 595.807L1095.68 595.921L1095.63 596.035L1095.58 596.148L1095.53 596.262L1095.48 596.376L1095.44 596.489L1095.39 596.602L1095.34 596.715L1095.29 596.828L1095.24 596.941L1095.19 597.054L1095.14 597.167L1095.09 597.279L1095.04 597.392L1094.99 597.504L1094.94 597.616L1094.9 597.728L1094.85 597.839L1094.8 597.951L1094.75 598.062L1094.7 598.174L1094.65 598.285L1094.6 598.396L1094.56 598.506L1094.51 598.617L1094.46 598.727L1094.41 598.838L1094.36 598.948L1094.32 599.058L1094.27 599.167L1094.22 599.277L1094.17 599.386L1094.13 599.495L1094.08 599.604L1094.03 599.713L1093.98 599.822L1093.94 599.93L1093.89 600.038L1093.84 600.146L1093.8 600.254L1093.75 600.361L1093.7 600.469L1093.66 600.576L1093.61 600.683L1093.56 600.79L1093.52 600.896L1093.47 601.002L1093.42 601.108L1093.38 601.214L1093.33 601.32L1093.29 601.425L1093.24 601.53L1093.19 601.635L1093.15 601.739L1093.1 601.844L1093.06 601.948L1093.01 602.052L1092.97 602.155L1092.92 602.259L1092.88 602.362L1092.83 602.465L1092.79 602.567L1092.74 602.669L1092.7 602.771L1092.65 602.873L1092.61 602.975L1092.57 603.076L1092.52 603.177L1092.48 603.278L1092.43 603.378L1092.39 603.478L1092.35 603.578L1092.3 603.678L1092.26 603.777L1092.22 603.876L1092.18 603.974L1092.13 604.073L1092.09 604.171L1092.05 604.269L1092 604.366L1091.96 604.463L1091.92 604.56L1091.88 604.657L1091.84 604.753L1091.79 604.849L1091.75 604.944L1091.71 605.04L1091.67 605.134L1091.63 605.229L1091.59 605.323L1091.55 605.417L1091.51 605.511L1091.47 605.604L1091.42 605.697L1091.38 605.79L1091.34 605.882L1091.3 605.974L1091.26 606.065L1091.22 606.157L1091.19 606.247L1091.15 606.338L1091.11 606.428L1091.07 606.518L1091.03 606.607L1090.99 606.696L1090.95 606.785L1090.91 606.873L1090.87 606.961L1090.84 607.049L1090.8 607.136L1090.76 607.223L1090.72 607.309L1090.69 607.395L1090.65 607.481L1090.61 607.566L1090.57 607.651L1090.54 607.735L1090.5 607.819L1090.46 607.903L1090.43 607.986L1090.39 608.069L1090.36 608.151L1090.32 608.233L1090.28 608.315L1090.25 608.396L1090.21 608.477L1090.18 608.557L1090.14 608.637L1090.11 608.717L1090.08 608.796L1090.04 608.875L1090.01 608.953L1089.97 609.031L1089.94 609.108L1089.91 609.185L1089.87 609.261L1089.84 609.337L1089.81 609.413L1089.77 609.488L1089.74 609.563L1089.71 609.637L1089.68 609.711L1089.64 609.784L1089.61 609.857L1089.58 609.929L1089.55 610.001L1089.52 610.073L1089.49 610.143L1089.46 610.214L1089.43 610.284L1089.4 610.354L1089.37 610.423L1089.34 610.491L1089.31 610.559L1089.28 610.627L1089.25 610.694L1089.22 610.761L1089.19 610.827L1089.16 610.892L1089.13 610.957L1089.11 611.022L1089.08 611.086L1089.05 611.15L1089.02 611.213L1089 611.275L1088.97 611.337L1088.94 611.399L1088.91 611.46L1088.89 611.52L1088.86 611.58L1088.84 611.64L1088.81 611.699L1088.79 611.757L1088.78 611.771L1086.47 610.765L1074.35 605.485L1047.26 593.688C1024.33 583.701 1013.84 557.017 1023.83 534.088C1033.81 511.158 1060.5 500.666 1083.43 510.652Z" fill="white" stroke="black" stroke-width="6"/>
<circle cx="1064.88" cy="550.99" r="35.4508" transform="rotate(-21.4649 1064.88 550.99)" fill="#28AD3D"/>
<path d="M1067.63 537.154C1067.63 536.78 1067.9 536.406 1068.45 536.032C1068.99 535.658 1069.52 535.471 1070.03 535.471C1070.57 535.471 1070.98 535.59 1071.25 535.828C1071.56 536.066 1071.73 536.355 1071.76 536.695C1072.48 545.875 1072.83 551.689 1072.83 554.137C1072.83 556.551 1072.8 558.37 1072.73 559.594C1072.66 560.818 1072.49 562.144 1072.22 563.572C1071.95 564.966 1071.56 566.071 1071.05 566.887C1069.93 568.791 1068.12 569.743 1065.64 569.743C1063.16 569.743 1061.14 568.927 1059.57 567.295C1058.01 565.629 1057.23 563.249 1057.23 560.155C1057.23 559.645 1057.48 559.186 1057.99 558.778C1058.54 558.336 1059.11 558.115 1059.73 558.115C1060.47 558.115 1060.93 558.812 1061.1 560.206C1061.55 564.15 1063.02 566.122 1065.54 566.122C1066.19 566.122 1066.73 565.918 1067.17 565.51C1067.65 565.068 1068.01 564.558 1068.24 563.98C1068.48 563.368 1068.67 562.569 1068.8 561.583C1069.01 560.155 1069.11 558.455 1069.11 556.483C1069.11 554.477 1068.86 550.839 1068.35 545.569C1067.87 540.299 1067.63 537.494 1067.63 537.154Z" fill="white"/>
</svg>
