<svg width="1512" height="2471" viewBox="0 0 1512 2471" fill="none" xmlns="http://www.w3.org/2000/svg">
<path d="M1376.74 449.561C1366.54 472.399 1339.77 482.649 1316.93 472.454L1316.86 472.425L1316.8 472.395L1316.73 472.365L1316.66 472.335L1316.59 472.305L1316.53 472.274L1316.46 472.244L1316.39 472.213L1316.32 472.182L1316.25 472.15L1316.18 472.119L1316.11 472.087L1316.03 472.055L1315.96 472.023L1315.89 471.99L1315.82 471.958L1315.74 471.925L1315.67 471.892L1315.6 471.859L1315.52 471.825L1315.44 471.792L1315.37 471.758L1315.29 471.724L1315.22 471.69L1315.14 471.655L1315.06 471.621L1314.98 471.586L1314.91 471.551L1314.83 471.516L1314.75 471.481L1314.67 471.445L1314.59 471.409L1314.51 471.373L1314.43 471.337L1314.35 471.301L1314.26 471.265L1314.18 471.228L1314.1 471.191L1314.02 471.154L1313.93 471.117L1313.85 471.08L1313.77 471.042L1313.68 471.004L1313.6 470.966L1313.51 470.928L1313.42 470.89L1313.34 470.852L1313.25 470.813L1313.17 470.774L1313.08 470.735L1312.99 470.696L1312.9 470.657L1312.81 470.618L1312.73 470.578L1312.64 470.538L1312.55 470.498L1312.46 470.458L1312.37 470.418L1312.28 470.378L1312.19 470.337L1312.09 470.296L1312 470.256L1311.91 470.215L1311.82 470.173L1311.73 470.132L1311.63 470.091L1311.54 470.049L1311.45 470.007L1311.35 469.965L1311.26 469.923L1311.16 469.881L1311.07 469.839L1310.97 469.796L1310.88 469.754L1310.78 469.711L1310.69 469.668L1310.59 469.625L1310.49 469.582L1310.4 469.538L1310.3 469.495L1310.2 469.451L1310.1 469.407L1310.01 469.364L1309.91 469.32L1309.81 469.275L1309.71 469.231L1309.61 469.187L1309.51 469.142L1309.41 469.098L1309.31 469.053L1309.21 469.008L1309.11 468.963L1309.01 468.918L1308.91 468.873L1308.8 468.827L1308.7 468.782L1308.6 468.736L1308.5 468.69L1308.39 468.645L1308.29 468.599L1308.19 468.553L1308.09 468.506L1307.98 468.46L1307.88 468.414L1307.77 468.367L1307.67 468.321L1307.56 468.274L1307.46 468.227L1307.35 468.18L1307.25 468.133L1307.14 468.086L1307.04 468.039L1306.93 467.991L1306.83 467.944L1306.72 467.897L1306.61 467.849L1306.51 467.801L1306.4 467.753L1306.29 467.705L1306.18 467.657L1306.08 467.609L1305.97 467.561L1305.86 467.513L1305.75 467.465L1305.64 467.416L1305.53 467.368L1305.42 467.319L1305.32 467.27L1305.21 467.221L1305.1 467.173L1304.99 467.124L1304.88 467.075L1304.77 467.026L1304.66 466.976L1304.55 466.927L1304.44 466.878L1304.33 466.828L1304.22 466.779L1304.1 466.729L1303.99 466.68L1303.88 466.63L1303.77 466.58L1303.66 466.531L1303.55 466.481L1303.44 466.431L1303.32 466.381L1303.21 466.331L1303.1 466.281L1302.99 466.23L1302.87 466.18L1302.76 466.13L1302.65 466.079L1302.54 466.029L1302.42 465.979L1302.31 465.928L1302.2 465.877L1302.08 465.827L1301.97 465.776L1301.85 465.725L1301.74 465.675L1301.63 465.624L1301.51 465.573L1301.4 465.522L1301.28 465.471L1301.17 465.42L1301.06 465.369L1300.94 465.318L1300.83 465.267L1300.71 465.215L1300.6 465.164L1300.48 465.113L1300.37 465.062L1300.25 465.01L1300.14 464.959L1300.02 464.908L1299.91 464.856L1299.79 464.805L1299.68 464.753L1299.56 464.702L1299.45 464.65L1299.33 464.599L1299.22 464.547L1299.1 464.496L1298.98 464.444L1298.87 464.392L1298.75 464.341L1298.64 464.289L1298.52 464.237L1298.41 464.185L1298.29 464.134L1298.17 464.082L1298.06 464.03L1297.94 463.978L1297.83 463.927L1297.71 463.875L1297.59 463.823L1297.48 463.771L1297.36 463.719L1297.25 463.668L1297.13 463.616L1297.01 463.564L1296.9 463.512L1296.78 463.46L1296.66 463.408L1296.55 463.357L1296.43 463.305L1296.32 463.253L1296.2 463.201L1296.08 463.149L1295.97 463.097L1295.85 463.046L1295.74 462.994L1295.62 462.942L1295.5 462.89L1295.39 462.838L1295.27 462.787L1295.16 462.735L1295.04 462.683L1294.92 462.631L1294.81 462.58L1294.69 462.528L1294.58 462.476L1294.46 462.425L1294.35 462.373L1294.23 462.322L1294.11 462.27L1294 462.218L1293.88 462.167L1293.77 462.115L1293.65 462.064L1293.54 462.012L1293.42 461.961L1293.31 461.91L1293.19 461.858L1293.08 461.807L1292.96 461.756L1292.85 461.704L1292.73 461.653L1292.62 461.602L1292.5 461.551L1292.39 461.5L1292.27 461.449L1292.16 461.398L1292.05 461.347L1291.93 461.296L1291.82 461.245L1291.7 461.194L1291.59 461.143L1291.48 461.093L1291.36 461.042L1291.25 460.991L1291.14 460.941L1291.02 460.89L1290.91 460.84L1290.8 460.789L1290.68 460.739L1290.57 460.689L1290.46 460.638L1290.35 460.588L1290.23 460.538L1290.12 460.488L1290.01 460.438L1289.9 460.388L1289.79 460.338L1289.67 460.288L1289.56 460.239L1289.45 460.189L1289.34 460.139L1289.23 460.09L1289.12 460.04L1289.01 459.991L1288.9 459.942L1288.79 459.892L1288.68 459.843L1288.57 459.794L1288.46 459.745L1288.35 459.696L1288.24 459.647L1288.13 459.598L1288.02 459.55L1287.91 459.501L1287.8 459.453L1287.69 459.404L1287.59 459.356L1287.48 459.307L1287.37 459.259L1287.26 459.211L1287.15 459.163L1287.05 459.115L1286.94 459.067L1286.83 459.02L1286.73 458.972L1286.62 458.925L1286.51 458.877L1286.41 458.83L1286.3 458.783L1286.2 458.736L1286.09 458.688L1285.99 458.642L1285.88 458.595L1285.78 458.548L1285.67 458.501L1285.57 458.455L1285.46 458.408L1285.36 458.362L1285.26 458.316L1285.15 458.27L1285.05 458.224L1284.95 458.178L1284.85 458.132L1284.74 458.087L1284.64 458.041L1284.54 457.996L1284.44 457.951L1284.34 457.906L1284.24 457.861L1284.14 457.816L1284.04 457.771L1283.94 457.726L1283.84 457.682L1283.74 457.637L1283.64 457.593L1283.54 457.549L1283.44 457.505L1283.34 457.461L1283.24 457.417L1283.15 457.374L1283.05 457.33L1282.95 457.287L1282.85 457.244L1282.76 457.201L1282.66 457.158L1282.57 457.115L1282.47 457.072L1282.38 457.03L1282.28 456.988L1282.19 456.945L1282.09 456.903L1282 456.861L1281.9 456.82L1281.81 456.778L1281.72 456.737L1281.63 456.695L1281.53 456.654L1281.44 456.613L1281.35 456.572L1281.26 456.532L1281.17 456.491L1281.08 456.451L1280.99 456.41L1280.9 456.37L1280.81 456.33L1280.72 456.291L1280.63 456.251L1280.54 456.212L1280.45 456.172L1280.37 456.133L1280.28 456.094L1280.19 456.056L1280.11 456.017L1280.02 455.979L1279.93 455.94L1279.85 455.902L1279.76 455.864L1279.68 455.827L1279.6 455.789L1279.51 455.752L1279.43 455.715L1279.35 455.678L1279.26 455.641L1279.18 455.604L1279.1 455.568L1279.02 455.531L1278.94 455.495L1278.86 455.459L1278.78 455.424L1278.7 455.388L1278.62 455.353L1278.54 455.317L1278.46 455.283L1278.38 455.248L1278.31 455.213L1278.23 455.179L1278.15 455.145L1278.08 455.111L1278 455.077L1277.92 455.043L1277.85 455.01L1277.78 454.977L1277.7 454.944L1277.63 454.911L1277.56 454.878L1277.48 454.846L1277.41 454.814L1277.34 454.782L1277.27 454.75L1277.2 454.718L1277.13 454.687L1277.06 454.656L1276.99 454.625L1276.92 454.594L1276.85 454.564L1276.78 454.534L1276.72 454.503L1276.65 454.474L1276.58 454.444L1276.52 454.415L1276.45 454.385L1276.39 454.356L1276.32 454.328L1276.26 454.299L1276.19 454.271L1276.13 454.243L1276.07 454.215L1276.01 454.188L1275.95 454.16L1275.89 454.133L1275.83 454.106L1275.77 454.079L1275.71 454.053L1275.65 454.027L1275.59 454.001L1275.58 453.995L1276.6 451.695L1281.99 439.622L1294.04 412.643C1304.23 389.805 1331.01 379.556 1353.85 389.751C1376.68 399.945 1386.93 426.723 1376.74 449.561Z" fill="white" stroke="black" stroke-width="6"/>
<path d="M1381.72 451.34C1371.52 474.178 1344.74 484.427 1321.91 474.232L1321.84 474.203L1321.77 474.173L1321.71 474.143L1321.64 474.113L1321.57 474.083L1321.5 474.053L1321.44 474.022L1321.37 473.991L1321.3 473.96L1321.23 473.929L1321.16 473.897L1321.08 473.865L1321.01 473.833L1320.94 473.801L1320.87 473.769L1320.8 473.736L1320.72 473.703L1320.65 473.67L1320.57 473.637L1320.5 473.604L1320.42 473.57L1320.35 473.536L1320.27 473.502L1320.19 473.468L1320.12 473.434L1320.04 473.399L1319.96 473.364L1319.88 473.329L1319.81 473.294L1319.73 473.259L1319.65 473.223L1319.57 473.188L1319.49 473.152L1319.41 473.116L1319.32 473.079L1319.24 473.043L1319.16 473.006L1319.08 472.969L1318.99 472.932L1318.91 472.895L1318.83 472.858L1318.74 472.82L1318.66 472.783L1318.57 472.745L1318.49 472.707L1318.4 472.668L1318.32 472.63L1318.23 472.591L1318.14 472.553L1318.06 472.514L1317.97 472.475L1317.88 472.435L1317.79 472.396L1317.7 472.356L1317.62 472.317L1317.53 472.277L1317.44 472.237L1317.35 472.196L1317.26 472.156L1317.16 472.115L1317.07 472.075L1316.98 472.034L1316.89 471.993L1316.8 471.952L1316.71 471.91L1316.61 471.869L1316.52 471.827L1316.43 471.786L1316.33 471.744L1316.24 471.702L1316.14 471.659L1316.05 471.617L1315.95 471.574L1315.86 471.532L1315.76 471.489L1315.67 471.446L1315.57 471.403L1315.47 471.36L1315.38 471.317L1315.28 471.273L1315.18 471.23L1315.08 471.186L1314.98 471.142L1314.89 471.098L1314.79 471.054L1314.69 471.01L1314.59 470.965L1314.49 470.921L1314.39 470.876L1314.29 470.831L1314.19 470.786L1314.09 470.741L1313.99 470.696L1313.88 470.651L1313.78 470.606L1313.68 470.56L1313.58 470.514L1313.48 470.469L1313.37 470.423L1313.27 470.377L1313.17 470.331L1313.06 470.285L1312.96 470.238L1312.86 470.192L1312.75 470.146L1312.65 470.099L1312.54 470.052L1312.44 470.005L1312.33 469.958L1312.23 469.911L1312.12 469.864L1312.02 469.817L1311.91 469.77L1311.8 469.722L1311.7 469.675L1311.59 469.627L1311.48 469.579L1311.38 469.532L1311.27 469.484L1311.16 469.436L1311.05 469.388L1310.95 469.339L1310.84 469.291L1310.73 469.243L1310.62 469.194L1310.51 469.146L1310.4 469.097L1310.29 469.049L1310.19 469L1310.08 468.951L1309.97 468.902L1309.86 468.853L1309.75 468.804L1309.64 468.755L1309.53 468.705L1309.42 468.656L1309.3 468.607L1309.19 468.557L1309.08 468.508L1308.97 468.458L1308.86 468.408L1308.75 468.359L1308.64 468.309L1308.53 468.259L1308.41 468.209L1308.3 468.159L1308.19 468.109L1308.08 468.059L1307.96 468.009L1307.85 467.958L1307.74 467.908L1307.63 467.858L1307.51 467.807L1307.4 467.757L1307.29 467.706L1307.17 467.656L1307.06 467.605L1306.95 467.554L1306.83 467.504L1306.72 467.453L1306.61 467.402L1306.49 467.351L1306.38 467.3L1306.26 467.249L1306.15 467.198L1306.03 467.147L1305.92 467.096L1305.81 467.045L1305.69 466.994L1305.58 466.943L1305.46 466.891L1305.35 466.84L1305.23 466.789L1305.12 466.737L1305 466.686L1304.89 466.635L1304.77 466.583L1304.66 466.532L1304.54 466.48L1304.43 466.429L1304.31 466.377L1304.19 466.325L1304.08 466.274L1303.96 466.222L1303.85 466.171L1303.73 466.119L1303.62 466.067L1303.5 466.016L1303.38 465.964L1303.27 465.912L1303.15 465.86L1303.04 465.809L1302.92 465.757L1302.8 465.705L1302.69 465.653L1302.57 465.601L1302.46 465.55L1302.34 465.498L1302.22 465.446L1302.11 465.394L1301.99 465.342L1301.88 465.29L1301.76 465.239L1301.64 465.187L1301.53 465.135L1301.41 465.083L1301.29 465.031L1301.18 464.979L1301.06 464.928L1300.95 464.876L1300.83 464.824L1300.71 464.772L1300.6 464.72L1300.48 464.669L1300.37 464.617L1300.25 464.565L1300.13 464.513L1300.02 464.461L1299.9 464.41L1299.79 464.358L1299.67 464.306L1299.56 464.255L1299.44 464.203L1299.32 464.151L1299.21 464.1L1299.09 464.048L1298.98 463.997L1298.86 463.945L1298.75 463.894L1298.63 463.842L1298.52 463.791L1298.4 463.739L1298.29 463.688L1298.17 463.637L1298.06 463.585L1297.94 463.534L1297.83 463.483L1297.71 463.432L1297.6 463.38L1297.48 463.329L1297.37 463.278L1297.25 463.227L1297.14 463.176L1297.02 463.125L1296.91 463.074L1296.8 463.023L1296.68 462.972L1296.57 462.922L1296.46 462.871L1296.34 462.82L1296.23 462.77L1296.11 462.719L1296 462.668L1295.89 462.618L1295.78 462.568L1295.66 462.517L1295.55 462.467L1295.44 462.417L1295.33 462.366L1295.21 462.316L1295.1 462.266L1294.99 462.216L1294.88 462.166L1294.76 462.116L1294.65 462.067L1294.54 462.017L1294.43 461.967L1294.32 461.918L1294.21 461.868L1294.1 461.819L1293.99 461.769L1293.88 461.72L1293.77 461.671L1293.66 461.621L1293.55 461.572L1293.44 461.523L1293.33 461.474L1293.22 461.425L1293.11 461.377L1293 461.328L1292.89 461.279L1292.78 461.231L1292.67 461.182L1292.56 461.134L1292.46 461.086L1292.35 461.038L1292.24 460.99L1292.13 460.942L1292.03 460.894L1291.92 460.846L1291.81 460.798L1291.7 460.75L1291.6 460.703L1291.49 460.656L1291.39 460.608L1291.28 460.561L1291.17 460.514L1291.07 460.467L1290.96 460.42L1290.86 460.373L1290.75 460.326L1290.65 460.28L1290.55 460.233L1290.44 460.187L1290.34 460.141L1290.24 460.094L1290.13 460.048L1290.03 460.002L1289.93 459.956L1289.82 459.911L1289.72 459.865L1289.62 459.82L1289.52 459.774L1289.42 459.729L1289.32 459.684L1289.21 459.639L1289.11 459.594L1289.01 459.549L1288.91 459.505L1288.81 459.46L1288.71 459.416L1288.62 459.371L1288.52 459.327L1288.42 459.283L1288.32 459.239L1288.22 459.196L1288.12 459.152L1288.03 459.109L1287.93 459.065L1287.83 459.022L1287.74 458.979L1287.64 458.936L1287.54 458.893L1287.45 458.851L1287.35 458.808L1287.26 458.766L1287.16 458.724L1287.07 458.682L1286.98 458.64L1286.88 458.598L1286.79 458.556L1286.7 458.515L1286.6 458.474L1286.51 458.432L1286.42 458.391L1286.33 458.351L1286.24 458.31L1286.15 458.269L1286.06 458.229L1285.97 458.189L1285.88 458.149L1285.79 458.109L1285.7 458.069L1285.61 458.029L1285.52 457.99L1285.43 457.951L1285.35 457.912L1285.26 457.873L1285.17 457.834L1285.08 457.795L1285 457.757L1284.91 457.719L1284.83 457.681L1284.74 457.643L1284.66 457.605L1284.57 457.567L1284.49 457.53L1284.41 457.493L1284.32 457.456L1284.24 457.419L1284.16 457.382L1284.08 457.346L1284 457.31L1283.92 457.273L1283.84 457.238L1283.76 457.202L1283.68 457.166L1283.6 457.131L1283.52 457.096L1283.44 457.061L1283.36 457.026L1283.28 456.991L1283.21 456.957L1283.13 456.923L1283.05 456.889L1282.98 456.855L1282.9 456.821L1282.83 456.788L1282.75 456.755L1282.68 456.722L1282.61 456.689L1282.53 456.657L1282.46 456.624L1282.39 456.592L1282.32 456.56L1282.25 456.528L1282.18 456.497L1282.11 456.465L1282.04 456.434L1281.97 456.403L1281.9 456.373L1281.83 456.342L1281.76 456.312L1281.69 456.282L1281.63 456.252L1281.56 456.222L1281.5 456.193L1281.43 456.164L1281.36 456.135L1281.3 456.106L1281.24 456.078L1281.17 456.049L1281.11 456.021L1281.05 455.993L1280.99 455.966L1280.93 455.938L1280.86 455.911L1280.8 455.884L1280.74 455.858L1280.69 455.831L1280.63 455.805L1280.57 455.779L1280.56 455.773L1281.58 453.473L1286.97 441.4L1299.01 414.422C1309.21 391.584 1335.99 381.334 1358.82 391.529C1381.66 401.723 1391.91 428.502 1381.72 451.34Z" fill="white" stroke="black" stroke-width="6"/>
<circle cx="1341.55" cy="432.427" r="35.4508" transform="rotate(69.0555 1341.55 432.427)" fill="#F14E1C"/>
<path d="M1343.41 417.215C1345.62 417.215 1347.49 417.589 1349.02 418.337C1350.59 419.085 1351.37 420.037 1351.37 421.193C1351.37 421.703 1351.23 422.145 1350.96 422.519C1350.72 422.893 1350.35 423.08 1349.84 423.08C1349.36 423.08 1348.31 422.706 1346.68 421.958C1345.04 421.176 1343.55 420.785 1342.19 420.785C1340.86 420.785 1339.49 421.21 1338.06 422.06C1336.63 422.91 1335.92 423.947 1335.92 425.171C1335.92 426.837 1336.78 428.061 1338.52 428.843C1339.81 429.421 1341.66 429.948 1344.08 430.424C1346.49 430.866 1348.46 431.801 1349.99 433.229C1351.52 434.623 1352.29 436.748 1352.29 439.604C1352.29 443.956 1350.98 447.169 1348.36 449.243C1346.9 450.399 1344.82 450.977 1342.14 450.977C1339.49 450.977 1336.83 450.246 1334.18 448.784C1332.45 447.866 1331.58 446.948 1331.58 446.03C1331.58 445.69 1331.72 445.316 1331.99 444.908C1332.29 444.5 1332.7 444.16 1333.21 443.888C1333.72 443.616 1334.18 443.582 1334.59 443.786C1335.03 443.956 1335.73 444.279 1336.68 444.755C1337.63 445.231 1338.33 445.554 1338.77 445.724C1340.2 446.268 1341.54 446.54 1342.8 446.54C1344.06 446.54 1345.27 445.928 1346.42 444.704C1347.61 443.446 1348.21 441.916 1348.21 440.114C1348.21 437.734 1347.02 436.068 1344.64 435.116C1343.48 434.64 1342.17 434.283 1340.71 434.045C1337.68 433.501 1335.41 432.6 1333.88 431.342C1332.35 430.05 1331.58 428.112 1331.58 425.528C1331.58 422.944 1332.69 420.921 1334.9 419.459C1337.11 417.963 1339.94 417.215 1343.41 417.215Z" fill="white"/>
</svg>
