<svg width="1512" height="2471" viewBox="0 0 1512 2471" fill="none" xmlns="http://www.w3.org/2000/svg">
<path d="M1065.55 251.861C1076.76 229.505 1103.97 220.472 1126.33 231.684L1126.39 231.717L1126.46 231.749L1126.52 231.782L1126.59 231.815L1126.66 231.849L1126.72 231.882L1126.79 231.916L1126.86 231.95L1126.93 231.984L1126.99 232.019L1127.06 232.053L1127.13 232.088L1127.2 232.123L1127.27 232.159L1127.34 232.194L1127.42 232.23L1127.49 232.266L1127.56 232.303L1127.63 232.339L1127.71 232.376L1127.78 232.413L1127.85 232.45L1127.93 232.487L1128 232.525L1128.08 232.563L1128.15 232.601L1128.23 232.639L1128.31 232.678L1128.38 232.716L1128.46 232.755L1128.54 232.794L1128.62 232.833L1128.7 232.873L1128.78 232.913L1128.86 232.953L1128.94 232.993L1129.02 233.033L1129.1 233.073L1129.18 233.114L1129.26 233.155L1129.34 233.196L1129.42 233.237L1129.51 233.279L1129.59 233.321L1129.67 233.363L1129.76 233.405L1129.84 233.447L1129.93 233.489L1130.01 233.532L1130.1 233.575L1130.18 233.618L1130.27 233.661L1130.35 233.704L1130.44 233.748L1130.53 233.791L1130.62 233.835L1130.7 233.879L1130.79 233.924L1130.88 233.968L1130.97 234.013L1131.06 234.057L1131.15 234.102L1131.24 234.148L1131.33 234.193L1131.42 234.238L1131.51 234.284L1131.6 234.33L1131.69 234.376L1131.79 234.422L1131.88 234.468L1131.97 234.514L1132.06 234.561L1132.16 234.608L1132.25 234.655L1132.34 234.702L1132.44 234.749L1132.53 234.796L1132.63 234.844L1132.72 234.891L1132.82 234.939L1132.91 234.987L1133.01 235.035L1133.1 235.083L1133.2 235.132L1133.3 235.18L1133.4 235.229L1133.49 235.278L1133.59 235.327L1133.69 235.376L1133.79 235.425L1133.88 235.475L1133.98 235.524L1134.08 235.574L1134.18 235.623L1134.28 235.673L1134.38 235.723L1134.48 235.774L1134.58 235.824L1134.68 235.874L1134.78 235.925L1134.88 235.975L1134.98 236.026L1135.09 236.077L1135.19 236.128L1135.29 236.179L1135.39 236.231L1135.49 236.282L1135.6 236.333L1135.7 236.385L1135.8 236.437L1135.91 236.489L1136.01 236.541L1136.11 236.593L1136.22 236.645L1136.32 236.697L1136.43 236.749L1136.53 236.802L1136.64 236.855L1136.74 236.907L1136.85 236.96L1136.95 237.013L1137.06 237.066L1137.16 237.119L1137.27 237.172L1137.38 237.225L1137.48 237.279L1137.59 237.332L1137.7 237.386L1137.8 237.439L1137.91 237.493L1138.02 237.547L1138.12 237.601L1138.23 237.655L1138.34 237.709L1138.45 237.763L1138.56 237.817L1138.66 237.872L1138.77 237.926L1138.88 237.981L1138.99 238.035L1139.1 238.09L1139.21 238.145L1139.32 238.199L1139.43 238.254L1139.54 238.309L1139.65 238.364L1139.76 238.419L1139.87 238.474L1139.98 238.53L1140.09 238.585L1140.2 238.64L1140.31 238.696L1140.42 238.751L1140.53 238.807L1140.64 238.862L1140.75 238.918L1140.86 238.974L1140.97 239.029L1141.08 239.085L1141.19 239.141L1141.31 239.197L1141.42 239.253L1141.53 239.309L1141.64 239.365L1141.75 239.421L1141.86 239.477L1141.98 239.533L1142.09 239.59L1142.2 239.646L1142.31 239.702L1142.43 239.759L1142.54 239.815L1142.65 239.871L1142.76 239.928L1142.88 239.984L1142.99 240.041L1143.1 240.098L1143.21 240.154L1143.33 240.211L1143.44 240.267L1143.55 240.324L1143.67 240.381L1143.78 240.438L1143.89 240.494L1144.01 240.551L1144.12 240.608L1144.23 240.665L1144.35 240.722L1144.46 240.779L1144.57 240.836L1144.69 240.892L1144.8 240.949L1144.91 241.006L1145.03 241.063L1145.14 241.12L1145.25 241.177L1145.37 241.234L1145.48 241.291L1145.6 241.348L1145.71 241.405L1145.82 241.462L1145.94 241.519L1146.05 241.576L1146.16 241.633L1146.28 241.69L1146.39 241.747L1146.5 241.804L1146.62 241.861L1146.73 241.918L1146.85 241.975L1146.96 242.032L1147.07 242.089L1147.19 242.146L1147.3 242.203L1147.41 242.26L1147.53 242.317L1147.64 242.374L1147.75 242.431L1147.87 242.488L1147.98 242.545L1148.09 242.602L1148.21 242.658L1148.32 242.715L1148.43 242.772L1148.55 242.829L1148.66 242.885L1148.77 242.942L1148.89 242.999L1149 243.056L1149.11 243.112L1149.23 243.169L1149.34 243.225L1149.45 243.282L1149.56 243.338L1149.68 243.395L1149.79 243.451L1149.9 243.507L1150.01 243.564L1150.13 243.62L1150.24 243.676L1150.35 243.733L1150.46 243.789L1150.57 243.845L1150.68 243.901L1150.8 243.957L1150.91 244.013L1151.02 244.069L1151.13 244.125L1151.24 244.18L1151.35 244.236L1151.46 244.292L1151.58 244.347L1151.69 244.403L1151.8 244.459L1151.91 244.514L1152.02 244.569L1152.13 244.625L1152.24 244.68L1152.35 244.735L1152.46 244.79L1152.57 244.845L1152.68 244.9L1152.79 244.955L1152.9 245.01L1153.01 245.065L1153.12 245.12L1153.22 245.174L1153.33 245.229L1153.44 245.283L1153.55 245.338L1153.66 245.392L1153.77 245.446L1153.87 245.501L1153.98 245.555L1154.09 245.609L1154.2 245.663L1154.3 245.716L1154.41 245.77L1154.52 245.824L1154.63 245.877L1154.73 245.931L1154.84 245.984L1154.94 246.038L1155.05 246.091L1155.16 246.144L1155.26 246.197L1155.37 246.25L1155.47 246.302L1155.58 246.355L1155.68 246.408L1155.79 246.46L1155.89 246.513L1156 246.565L1156.1 246.617L1156.2 246.669L1156.31 246.721L1156.41 246.773L1156.51 246.825L1156.62 246.876L1156.72 246.928L1156.82 246.979L1156.92 247.03L1157.03 247.082L1157.13 247.133L1157.23 247.183L1157.33 247.234L1157.43 247.285L1157.53 247.335L1157.63 247.386L1157.73 247.436L1157.83 247.486L1157.93 247.536L1158.03 247.586L1158.13 247.636L1158.23 247.686L1158.33 247.735L1158.43 247.785L1158.53 247.834L1158.62 247.883L1158.72 247.932L1158.82 247.981L1158.92 248.029L1159.01 248.078L1159.11 248.126L1159.21 248.174L1159.3 248.223L1159.4 248.271L1159.49 248.318L1159.59 248.366L1159.68 248.413L1159.78 248.461L1159.87 248.508L1159.96 248.555L1160.06 248.602L1160.15 248.649L1160.24 248.695L1160.34 248.742L1160.43 248.788L1160.52 248.834L1160.61 248.88L1160.7 248.926L1160.79 248.971L1160.89 249.017L1160.98 249.062L1161.07 249.107L1161.15 249.152L1161.24 249.197L1161.33 249.242L1161.42 249.286L1161.51 249.33L1161.6 249.374L1161.69 249.418L1161.77 249.462L1161.86 249.505L1161.95 249.549L1162.03 249.592L1162.12 249.635L1162.2 249.678L1162.29 249.72L1162.37 249.763L1162.46 249.805L1162.54 249.847L1162.62 249.889L1162.71 249.931L1162.79 249.972L1162.87 250.014L1162.95 250.055L1163.04 250.096L1163.12 250.136L1163.2 250.177L1163.28 250.217L1163.36 250.257L1163.44 250.297L1163.52 250.337L1163.6 250.376L1163.67 250.416L1163.75 250.455L1163.83 250.494L1163.91 250.532L1163.98 250.571L1164.06 250.609L1164.14 250.647L1164.21 250.685L1164.29 250.722L1164.36 250.76L1164.43 250.797L1164.51 250.834L1164.58 250.871L1164.65 250.907L1164.73 250.943L1164.8 250.98L1164.87 251.015L1164.94 251.051L1165.01 251.086L1165.08 251.122L1165.15 251.156L1165.22 251.191L1165.29 251.226L1165.36 251.26L1165.43 251.294L1165.49 251.328L1165.56 251.361L1165.63 251.394L1165.69 251.428L1165.76 251.46L1165.82 251.493L1165.89 251.525L1165.95 251.557L1166.01 251.589L1166.08 251.621L1166.14 251.652L1166.2 251.683L1166.26 251.714L1166.32 251.745L1166.38 251.775L1166.44 251.805L1166.5 251.835L1166.56 251.865L1166.62 251.894L1166.68 251.923L1166.74 251.952L1166.79 251.98L1166.81 251.987L1165.68 254.238L1159.75 266.056L1146.5 292.465C1135.29 314.821 1108.08 323.854 1085.72 312.642C1063.37 301.429 1054.33 274.216 1065.55 251.861Z" fill="white" stroke="black" stroke-width="6"/>
<path d="M1060.65 249.86C1071.87 227.504 1099.08 218.471 1121.43 229.684L1121.5 229.716L1121.56 229.749L1121.63 229.782L1121.7 229.815L1121.76 229.848L1121.83 229.881L1121.9 229.915L1121.96 229.949L1122.03 229.983L1122.1 230.018L1122.17 230.053L1122.24 230.088L1122.31 230.123L1122.38 230.158L1122.45 230.194L1122.52 230.23L1122.59 230.266L1122.67 230.302L1122.74 230.338L1122.81 230.375L1122.89 230.412L1122.96 230.449L1123.04 230.487L1123.11 230.524L1123.19 230.562L1123.26 230.6L1123.34 230.638L1123.41 230.677L1123.49 230.716L1123.57 230.754L1123.65 230.793L1123.73 230.833L1123.8 230.872L1123.88 230.912L1123.96 230.952L1124.04 230.992L1124.12 231.032L1124.2 231.073L1124.28 231.114L1124.37 231.154L1124.45 231.196L1124.53 231.237L1124.61 231.278L1124.7 231.32L1124.78 231.362L1124.86 231.404L1124.95 231.446L1125.03 231.489L1125.12 231.531L1125.2 231.574L1125.29 231.617L1125.37 231.66L1125.46 231.704L1125.55 231.747L1125.64 231.791L1125.72 231.835L1125.81 231.879L1125.9 231.923L1125.99 231.967L1126.08 232.012L1126.17 232.057L1126.26 232.102L1126.35 232.147L1126.44 232.192L1126.53 232.238L1126.62 232.283L1126.71 232.329L1126.8 232.375L1126.89 232.421L1126.98 232.467L1127.08 232.514L1127.17 232.56L1127.26 232.607L1127.36 232.654L1127.45 232.701L1127.54 232.748L1127.64 232.796L1127.73 232.843L1127.83 232.891L1127.92 232.938L1128.02 232.986L1128.12 233.035L1128.21 233.083L1128.31 233.131L1128.4 233.18L1128.5 233.228L1128.6 233.277L1128.7 233.326L1128.79 233.375L1128.89 233.424L1128.99 233.474L1129.09 233.523L1129.19 233.573L1129.29 233.623L1129.39 233.673L1129.49 233.723L1129.59 233.773L1129.69 233.823L1129.79 233.874L1129.89 233.924L1129.99 233.975L1130.09 234.026L1130.19 234.076L1130.29 234.127L1130.4 234.179L1130.5 234.23L1130.6 234.281L1130.7 234.333L1130.81 234.384L1130.91 234.436L1131.01 234.488L1131.12 234.54L1131.22 234.592L1131.32 234.644L1131.43 234.696L1131.53 234.749L1131.64 234.801L1131.74 234.854L1131.85 234.907L1131.95 234.959L1132.06 235.012L1132.16 235.065L1132.27 235.118L1132.38 235.171L1132.48 235.225L1132.59 235.278L1132.69 235.332L1132.8 235.385L1132.91 235.439L1133.02 235.493L1133.12 235.546L1133.23 235.6L1133.34 235.654L1133.45 235.708L1133.55 235.763L1133.66 235.817L1133.77 235.871L1133.88 235.926L1133.99 235.98L1134.1 236.035L1134.21 236.089L1134.31 236.144L1134.42 236.199L1134.53 236.254L1134.64 236.309L1134.75 236.364L1134.86 236.419L1134.97 236.474L1135.08 236.529L1135.19 236.584L1135.3 236.64L1135.41 236.695L1135.52 236.75L1135.63 236.806L1135.75 236.862L1135.86 236.917L1135.97 236.973L1136.08 237.029L1136.19 237.084L1136.3 237.14L1136.41 237.196L1136.52 237.252L1136.64 237.308L1136.75 237.364L1136.86 237.42L1136.97 237.476L1137.08 237.533L1137.2 237.589L1137.31 237.645L1137.42 237.702L1137.53 237.758L1137.64 237.814L1137.76 237.871L1137.87 237.927L1137.98 237.984L1138.1 238.04L1138.21 238.097L1138.32 238.153L1138.43 238.21L1138.55 238.267L1138.66 238.323L1138.77 238.38L1138.89 238.437L1139 238.494L1139.11 238.551L1139.23 238.607L1139.34 238.664L1139.45 238.721L1139.57 238.778L1139.68 238.835L1139.79 238.892L1139.91 238.949L1140.02 239.006L1140.13 239.063L1140.25 239.12L1140.36 239.177L1140.47 239.234L1140.59 239.291L1140.7 239.348L1140.82 239.405L1140.93 239.462L1141.04 239.519L1141.16 239.576L1141.27 239.633L1141.38 239.69L1141.5 239.747L1141.61 239.804L1141.73 239.861L1141.84 239.918L1141.95 239.975L1142.07 240.032L1142.18 240.089L1142.29 240.146L1142.41 240.203L1142.52 240.26L1142.63 240.317L1142.75 240.373L1142.86 240.43L1142.97 240.487L1143.09 240.544L1143.2 240.601L1143.31 240.658L1143.43 240.715L1143.54 240.771L1143.65 240.828L1143.77 240.885L1143.88 240.942L1143.99 240.998L1144.11 241.055L1144.22 241.111L1144.33 241.168L1144.44 241.225L1144.56 241.281L1144.67 241.338L1144.78 241.394L1144.89 241.45L1145.01 241.507L1145.12 241.563L1145.23 241.619L1145.34 241.676L1145.46 241.732L1145.57 241.788L1145.68 241.844L1145.79 241.9L1145.9 241.956L1146.01 242.012L1146.13 242.068L1146.24 242.124L1146.35 242.18L1146.46 242.235L1146.57 242.291L1146.68 242.347L1146.79 242.402L1146.9 242.458L1147.01 242.513L1147.12 242.569L1147.23 242.624L1147.34 242.679L1147.45 242.735L1147.56 242.79L1147.67 242.845L1147.78 242.9L1147.89 242.955L1148 243.01L1148.11 243.064L1148.22 243.119L1148.33 243.174L1148.44 243.228L1148.55 243.283L1148.66 243.337L1148.76 243.392L1148.87 243.446L1148.98 243.5L1149.09 243.554L1149.2 243.608L1149.3 243.662L1149.41 243.716L1149.52 243.77L1149.63 243.823L1149.73 243.877L1149.84 243.93L1149.95 243.984L1150.05 244.037L1150.16 244.09L1150.26 244.143L1150.37 244.196L1150.47 244.249L1150.58 244.302L1150.68 244.354L1150.79 244.407L1150.89 244.46L1151 244.512L1151.1 244.564L1151.21 244.616L1151.31 244.668L1151.41 244.72L1151.52 244.772L1151.62 244.824L1151.72 244.876L1151.83 244.927L1151.93 244.978L1152.03 245.03L1152.13 245.081L1152.23 245.132L1152.34 245.183L1152.44 245.234L1152.54 245.284L1152.64 245.335L1152.74 245.385L1152.84 245.435L1152.94 245.486L1153.04 245.536L1153.14 245.586L1153.24 245.635L1153.34 245.685L1153.44 245.734L1153.53 245.784L1153.63 245.833L1153.73 245.882L1153.83 245.931L1153.93 245.98L1154.02 246.029L1154.12 246.077L1154.22 246.126L1154.31 246.174L1154.41 246.222L1154.5 246.27L1154.6 246.318L1154.69 246.365L1154.79 246.413L1154.88 246.46L1154.98 246.507L1155.07 246.554L1155.16 246.601L1155.26 246.648L1155.35 246.695L1155.44 246.741L1155.54 246.787L1155.63 246.833L1155.72 246.879L1155.81 246.925L1155.9 246.971L1155.99 247.016L1156.08 247.061L1156.17 247.107L1156.26 247.152L1156.35 247.196L1156.44 247.241L1156.53 247.285L1156.62 247.33L1156.7 247.374L1156.79 247.418L1156.88 247.461L1156.97 247.505L1157.05 247.548L1157.14 247.591L1157.22 247.634L1157.31 247.677L1157.39 247.72L1157.48 247.762L1157.56 247.804L1157.65 247.846L1157.73 247.888L1157.81 247.93L1157.9 247.972L1157.98 248.013L1158.06 248.054L1158.14 248.095L1158.22 248.136L1158.3 248.176L1158.38 248.216L1158.46 248.256L1158.54 248.296L1158.62 248.336L1158.7 248.376L1158.78 248.415L1158.86 248.454L1158.94 248.493L1159.01 248.532L1159.09 248.57L1159.17 248.608L1159.24 248.646L1159.32 248.684L1159.39 248.722L1159.47 248.759L1159.54 248.796L1159.61 248.833L1159.69 248.87L1159.76 248.906L1159.83 248.943L1159.9 248.979L1159.98 249.015L1160.05 249.05L1160.12 249.086L1160.19 249.121L1160.26 249.156L1160.33 249.19L1160.4 249.225L1160.46 249.259L1160.53 249.293L1160.6 249.327L1160.67 249.361L1160.73 249.394L1160.8 249.427L1160.86 249.46L1160.93 249.492L1160.99 249.525L1161.06 249.557L1161.12 249.589L1161.18 249.62L1161.25 249.651L1161.31 249.683L1161.37 249.713L1161.43 249.744L1161.49 249.774L1161.55 249.804L1161.61 249.834L1161.67 249.864L1161.73 249.893L1161.79 249.922L1161.84 249.951L1161.9 249.98L1161.91 249.986L1160.78 252.237L1154.86 264.056L1141.61 290.465C1130.4 312.82 1103.19 321.854 1080.83 310.641C1058.47 299.428 1049.44 272.216 1060.65 249.86Z" fill="white" stroke="black" stroke-width="6"/>
<circle cx="1099.93" cy="270.562" r="35.4508" transform="rotate(-108.364 1099.93 270.562)" fill="#7C64C2"/>
<path d="M1110.93 255.145C1111.74 255.145 1112.27 255.74 1112.51 256.93C1112.68 262.472 1112.76 268.524 1112.76 275.086C1112.76 281.614 1112.73 285.388 1112.66 286.408C1112.59 287.428 1112.37 288.142 1112 288.55C1111.62 288.958 1110.94 289.162 1109.96 289.162C1109.07 289.162 1108.63 288.618 1108.63 287.53V276.004C1108.63 274.134 1108.6 272.213 1108.53 270.241C1108.46 268.269 1108.43 267.028 1108.43 266.518C1107.27 268.49 1105.74 270.122 1103.84 271.414C1101.93 272.672 1099.81 273.301 1097.46 273.301C1095.12 273.301 1093.14 272.332 1091.55 270.394C1091.48 272.468 1091.44 274.933 1091.44 277.789C1091.44 280.611 1091.46 283.586 1091.5 286.714C1091.5 287.564 1091.21 288.193 1090.63 288.601C1090.08 288.975 1089.46 289.162 1088.74 289.162C1087.82 289.162 1087.36 288.601 1087.36 287.479C1087.4 284.419 1087.42 279.574 1087.42 272.944V258.46C1087.42 257.882 1087.6 257.321 1087.98 256.777C1088.38 256.233 1088.84 255.961 1089.35 255.961C1089.9 255.961 1090.39 256.114 1090.83 256.42C1091.27 256.692 1091.51 257.117 1091.55 257.695C1091.68 261.469 1092.29 264.274 1093.38 266.11C1094.47 267.946 1095.76 268.864 1097.26 268.864C1098.75 268.864 1100.03 268.626 1101.08 268.15C1102.17 267.64 1103.06 267.062 1103.74 266.416C1104.45 265.77 1105.13 264.852 1105.78 263.662C1106.69 261.962 1107.58 259.871 1108.43 257.389C1108.94 255.893 1109.77 255.145 1110.93 255.145Z" fill="white"/>
</svg>
