<svg width="1512" height="2471" viewBox="0 0 1512 2471" fill="none" xmlns="http://www.w3.org/2000/svg">
<path d="M1082.94 1126.08C1058.17 1129.48 1035.32 1112.16 1031.91 1087.38L1031.9 1087.31L1031.89 1087.24L1031.88 1087.17L1031.87 1087.1L1031.86 1087.02L1031.85 1086.95L1031.84 1086.87L1031.83 1086.8L1031.82 1086.72L1031.81 1086.65L1031.8 1086.57L1031.79 1086.49L1031.78 1086.41L1031.77 1086.34L1031.75 1086.26L1031.74 1086.18L1031.73 1086.1L1031.72 1086.02L1031.71 1085.94L1031.7 1085.86L1031.69 1085.77L1031.68 1085.69L1031.67 1085.61L1031.65 1085.53L1031.64 1085.44L1031.63 1085.36L1031.62 1085.27L1031.61 1085.19L1031.6 1085.1L1031.58 1085.02L1031.57 1084.93L1031.56 1084.85L1031.55 1084.76L1031.54 1084.67L1031.52 1084.58L1031.51 1084.49L1031.5 1084.4L1031.49 1084.31L1031.47 1084.23L1031.46 1084.13L1031.45 1084.04L1031.44 1083.95L1031.42 1083.86L1031.41 1083.77L1031.4 1083.68L1031.39 1083.58L1031.37 1083.49L1031.36 1083.4L1031.35 1083.3L1031.33 1083.21L1031.32 1083.11L1031.31 1083.02L1031.3 1082.92L1031.28 1082.82L1031.27 1082.73L1031.26 1082.63L1031.24 1082.53L1031.23 1082.44L1031.22 1082.34L1031.2 1082.24L1031.19 1082.14L1031.17 1082.04L1031.16 1081.94L1031.15 1081.84L1031.13 1081.74L1031.12 1081.64L1031.11 1081.54L1031.09 1081.44L1031.08 1081.34L1031.06 1081.23L1031.05 1081.13L1031.03 1081.03L1031.02 1080.92L1031.01 1080.82L1030.99 1080.72L1030.98 1080.61L1030.96 1080.51L1030.95 1080.4L1030.93 1080.3L1030.92 1080.19L1030.91 1080.09L1030.89 1079.98L1030.88 1079.87L1030.86 1079.77L1030.85 1079.66L1030.83 1079.55L1030.82 1079.44L1030.8 1079.34L1030.79 1079.23L1030.77 1079.12L1030.76 1079.01L1030.74 1078.9L1030.73 1078.79L1030.71 1078.68L1030.7 1078.57L1030.68 1078.46L1030.67 1078.35L1030.65 1078.24L1030.64 1078.13L1030.62 1078.01L1030.6 1077.9L1030.59 1077.79L1030.57 1077.68L1030.56 1077.57L1030.54 1077.45L1030.53 1077.34L1030.51 1077.23L1030.5 1077.11L1030.48 1077L1030.46 1076.88L1030.45 1076.77L1030.43 1076.65L1030.42 1076.54L1030.4 1076.42L1030.39 1076.31L1030.37 1076.19L1030.35 1076.08L1030.34 1075.96L1030.32 1075.84L1030.31 1075.73L1030.29 1075.61L1030.27 1075.49L1030.26 1075.38L1030.24 1075.26L1030.23 1075.14L1030.21 1075.02L1030.19 1074.9L1030.18 1074.79L1030.16 1074.67L1030.14 1074.55L1030.13 1074.43L1030.11 1074.31L1030.09 1074.19L1030.08 1074.07L1030.06 1073.95L1030.05 1073.83L1030.03 1073.71L1030.01 1073.59L1030 1073.47L1029.98 1073.35L1029.96 1073.23L1029.95 1073.11L1029.93 1072.99L1029.91 1072.87L1029.9 1072.75L1029.88 1072.62L1029.86 1072.5L1029.85 1072.38L1029.83 1072.26L1029.81 1072.14L1029.8 1072.01L1029.78 1071.89L1029.76 1071.77L1029.74 1071.65L1029.73 1071.52L1029.71 1071.4L1029.69 1071.28L1029.68 1071.15L1029.66 1071.03L1029.64 1070.91L1029.63 1070.78L1029.61 1070.66L1029.59 1070.54L1029.57 1070.41L1029.56 1070.29L1029.54 1070.16L1029.52 1070.04L1029.51 1069.92L1029.49 1069.79L1029.47 1069.67L1029.46 1069.54L1029.44 1069.42L1029.42 1069.29L1029.4 1069.17L1029.39 1069.04L1029.37 1068.92L1029.35 1068.79L1029.33 1068.67L1029.32 1068.54L1029.3 1068.42L1029.28 1068.29L1029.27 1068.17L1029.25 1068.04L1029.23 1067.92L1029.21 1067.79L1029.2 1067.67L1029.18 1067.54L1029.16 1067.41L1029.15 1067.29L1029.13 1067.16L1029.11 1067.04L1029.09 1066.91L1029.08 1066.79L1029.06 1066.66L1029.04 1066.53L1029.02 1066.41L1029.01 1066.28L1028.99 1066.16L1028.97 1066.03L1028.95 1065.9L1028.94 1065.78L1028.92 1065.65L1028.9 1065.53L1028.89 1065.4L1028.87 1065.27L1028.85 1065.15L1028.83 1065.02L1028.82 1064.9L1028.8 1064.77L1028.78 1064.64L1028.76 1064.52L1028.75 1064.39L1028.73 1064.27L1028.71 1064.14L1028.69 1064.01L1028.68 1063.89L1028.66 1063.76L1028.64 1063.64L1028.63 1063.51L1028.61 1063.39L1028.59 1063.26L1028.57 1063.14L1028.56 1063.01L1028.54 1062.88L1028.52 1062.76L1028.5 1062.63L1028.49 1062.51L1028.47 1062.38L1028.45 1062.26L1028.44 1062.13L1028.42 1062.01L1028.4 1061.88L1028.38 1061.76L1028.37 1061.63L1028.35 1061.51L1028.33 1061.38L1028.32 1061.26L1028.3 1061.13L1028.28 1061.01L1028.26 1060.89L1028.25 1060.76L1028.23 1060.64L1028.21 1060.51L1028.2 1060.39L1028.18 1060.27L1028.16 1060.14L1028.14 1060.02L1028.13 1059.9L1028.11 1059.77L1028.09 1059.65L1028.08 1059.53L1028.06 1059.4L1028.04 1059.28L1028.03 1059.16L1028.01 1059.03L1027.99 1058.91L1027.98 1058.79L1027.96 1058.67L1027.94 1058.55L1027.93 1058.42L1027.91 1058.3L1027.89 1058.18L1027.88 1058.06L1027.86 1057.94L1027.84 1057.82L1027.83 1057.7L1027.81 1057.58L1027.79 1057.45L1027.78 1057.33L1027.76 1057.21L1027.74 1057.09L1027.73 1056.97L1027.71 1056.85L1027.69 1056.74L1027.68 1056.62L1027.66 1056.5L1027.64 1056.38L1027.63 1056.26L1027.61 1056.14L1027.6 1056.02L1027.58 1055.9L1027.56 1055.79L1027.55 1055.67L1027.53 1055.55L1027.51 1055.43L1027.5 1055.32L1027.48 1055.2L1027.47 1055.08L1027.45 1054.97L1027.43 1054.85L1027.42 1054.73L1027.4 1054.62L1027.39 1054.5L1027.37 1054.39L1027.35 1054.27L1027.34 1054.16L1027.32 1054.04L1027.31 1053.93L1027.29 1053.81L1027.28 1053.7L1027.26 1053.59L1027.24 1053.47L1027.23 1053.36L1027.21 1053.25L1027.2 1053.14L1027.18 1053.02L1027.17 1052.91L1027.15 1052.8L1027.14 1052.69L1027.12 1052.58L1027.11 1052.47L1027.09 1052.36L1027.08 1052.25L1027.06 1052.14L1027.05 1052.03L1027.03 1051.92L1027.02 1051.81L1027 1051.7L1026.99 1051.59L1026.97 1051.48L1026.96 1051.37L1026.94 1051.27L1026.93 1051.16L1026.91 1051.05L1026.9 1050.95L1026.88 1050.84L1026.87 1050.73L1026.85 1050.63L1026.84 1050.52L1026.82 1050.42L1026.81 1050.31L1026.8 1050.21L1026.78 1050.11L1026.77 1050L1026.75 1049.9L1026.74 1049.8L1026.72 1049.69L1026.71 1049.59L1026.7 1049.49L1026.68 1049.39L1026.67 1049.29L1026.65 1049.19L1026.64 1049.08L1026.63 1048.98L1026.61 1048.88L1026.6 1048.79L1026.59 1048.69L1026.57 1048.59L1026.56 1048.49L1026.55 1048.39L1026.53 1048.29L1026.52 1048.2L1026.51 1048.1L1026.49 1048.01L1026.48 1047.91L1026.47 1047.81L1026.45 1047.72L1026.44 1047.62L1026.43 1047.53L1026.41 1047.44L1026.4 1047.34L1026.39 1047.25L1026.38 1047.16L1026.36 1047.07L1026.35 1046.97L1026.34 1046.88L1026.33 1046.79L1026.31 1046.7L1026.3 1046.61L1026.29 1046.52L1026.28 1046.43L1026.26 1046.34L1026.25 1046.26L1026.24 1046.17L1026.23 1046.08L1026.22 1045.99L1026.2 1045.91L1026.19 1045.82L1026.18 1045.74L1026.17 1045.65L1026.16 1045.57L1026.15 1045.48L1026.13 1045.4L1026.12 1045.32L1026.11 1045.23L1026.1 1045.15L1026.09 1045.07L1026.08 1044.99L1026.07 1044.91L1026.06 1044.83L1026.04 1044.75L1026.03 1044.67L1026.02 1044.59L1026.01 1044.51L1026 1044.43L1025.99 1044.36L1025.98 1044.28L1025.97 1044.2L1025.96 1044.13L1025.95 1044.05L1025.94 1043.98L1025.93 1043.9L1025.92 1043.83L1025.91 1043.76L1025.9 1043.69L1025.89 1043.61L1025.88 1043.54L1025.87 1043.47L1025.86 1043.4L1025.85 1043.33L1025.84 1043.26L1025.83 1043.19L1025.82 1043.12L1025.81 1043.06L1025.8 1042.99L1025.79 1042.92L1025.78 1042.86L1025.78 1042.79L1025.77 1042.73L1025.76 1042.66L1025.75 1042.6L1025.74 1042.54L1025.74 1042.52L1028.23 1042.18L1041.33 1040.38L1070.6 1036.35C1095.38 1032.94 1118.23 1050.27 1121.63 1075.04C1125.04 1099.82 1107.72 1122.67 1082.94 1126.08Z" fill="white" stroke="black" stroke-width="6"/>
<path d="M1084.06 1131.24C1059.29 1134.65 1036.44 1117.33 1033.03 1092.55L1033.02 1092.48L1033.01 1092.41L1033 1092.33L1032.99 1092.26L1032.98 1092.19L1032.97 1092.11L1032.96 1092.04L1032.95 1091.96L1032.94 1091.89L1032.93 1091.81L1032.92 1091.74L1032.91 1091.66L1032.9 1091.58L1032.89 1091.5L1032.87 1091.42L1032.86 1091.34L1032.85 1091.27L1032.84 1091.18L1032.83 1091.1L1032.82 1091.02L1032.81 1090.94L1032.8 1090.86L1032.79 1090.78L1032.77 1090.69L1032.76 1090.61L1032.75 1090.53L1032.74 1090.44L1032.73 1090.36L1032.72 1090.27L1032.7 1090.19L1032.69 1090.1L1032.68 1090.01L1032.67 1089.92L1032.66 1089.84L1032.64 1089.75L1032.63 1089.66L1032.62 1089.57L1032.61 1089.48L1032.59 1089.39L1032.58 1089.3L1032.57 1089.21L1032.56 1089.12L1032.54 1089.03L1032.53 1088.94L1032.52 1088.84L1032.51 1088.75L1032.49 1088.66L1032.48 1088.56L1032.47 1088.47L1032.45 1088.37L1032.44 1088.28L1032.43 1088.18L1032.42 1088.09L1032.4 1087.99L1032.39 1087.89L1032.38 1087.8L1032.36 1087.7L1032.35 1087.6L1032.34 1087.5L1032.32 1087.41L1032.31 1087.31L1032.29 1087.21L1032.28 1087.11L1032.27 1087.01L1032.25 1086.91L1032.24 1086.81L1032.23 1086.71L1032.21 1086.6L1032.2 1086.5L1032.18 1086.4L1032.17 1086.3L1032.16 1086.19L1032.14 1086.09L1032.13 1085.99L1032.11 1085.88L1032.1 1085.78L1032.08 1085.67L1032.07 1085.57L1032.05 1085.46L1032.04 1085.36L1032.03 1085.25L1032.01 1085.15L1032 1085.04L1031.98 1084.93L1031.97 1084.83L1031.95 1084.72L1031.94 1084.61L1031.92 1084.5L1031.91 1084.39L1031.89 1084.28L1031.88 1084.18L1031.86 1084.07L1031.85 1083.96L1031.83 1083.85L1031.82 1083.74L1031.8 1083.63L1031.79 1083.52L1031.77 1083.4L1031.76 1083.29L1031.74 1083.18L1031.73 1083.07L1031.71 1082.96L1031.69 1082.84L1031.68 1082.73L1031.66 1082.62L1031.65 1082.51L1031.63 1082.39L1031.62 1082.28L1031.6 1082.16L1031.58 1082.05L1031.57 1081.94L1031.55 1081.82L1031.54 1081.71L1031.52 1081.59L1031.51 1081.47L1031.49 1081.36L1031.47 1081.24L1031.46 1081.13L1031.44 1081.01L1031.43 1080.89L1031.41 1080.78L1031.39 1080.66L1031.38 1080.54L1031.36 1080.42L1031.35 1080.31L1031.33 1080.19L1031.31 1080.07L1031.3 1079.95L1031.28 1079.83L1031.26 1079.72L1031.25 1079.6L1031.23 1079.48L1031.21 1079.36L1031.2 1079.24L1031.18 1079.12L1031.17 1079L1031.15 1078.88L1031.13 1078.76L1031.12 1078.64L1031.1 1078.52L1031.08 1078.4L1031.07 1078.28L1031.05 1078.15L1031.03 1078.03L1031.02 1077.91L1031 1077.79L1030.98 1077.67L1030.97 1077.55L1030.95 1077.43L1030.93 1077.3L1030.92 1077.18L1030.9 1077.06L1030.88 1076.94L1030.86 1076.81L1030.85 1076.69L1030.83 1076.57L1030.81 1076.44L1030.8 1076.32L1030.78 1076.2L1030.76 1076.07L1030.75 1075.95L1030.73 1075.83L1030.71 1075.7L1030.69 1075.58L1030.68 1075.46L1030.66 1075.33L1030.64 1075.21L1030.63 1075.08L1030.61 1074.96L1030.59 1074.83L1030.58 1074.71L1030.56 1074.58L1030.54 1074.46L1030.52 1074.34L1030.51 1074.21L1030.49 1074.09L1030.47 1073.96L1030.45 1073.84L1030.44 1073.71L1030.42 1073.58L1030.4 1073.46L1030.39 1073.33L1030.37 1073.21L1030.35 1073.08L1030.33 1072.96L1030.32 1072.83L1030.3 1072.71L1030.28 1072.58L1030.27 1072.46L1030.25 1072.33L1030.23 1072.2L1030.21 1072.08L1030.2 1071.95L1030.18 1071.83L1030.16 1071.7L1030.14 1071.57L1030.13 1071.45L1030.11 1071.32L1030.09 1071.2L1030.07 1071.07L1030.06 1070.94L1030.04 1070.82L1030.02 1070.69L1030.01 1070.57L1029.99 1070.44L1029.97 1070.31L1029.95 1070.19L1029.94 1070.06L1029.92 1069.94L1029.9 1069.81L1029.88 1069.68L1029.87 1069.56L1029.85 1069.43L1029.83 1069.31L1029.81 1069.18L1029.8 1069.06L1029.78 1068.93L1029.76 1068.8L1029.75 1068.68L1029.73 1068.55L1029.71 1068.43L1029.69 1068.3L1029.68 1068.18L1029.66 1068.05L1029.64 1067.93L1029.62 1067.8L1029.61 1067.67L1029.59 1067.55L1029.57 1067.42L1029.56 1067.3L1029.54 1067.17L1029.52 1067.05L1029.5 1066.92L1029.49 1066.8L1029.47 1066.67L1029.45 1066.55L1029.44 1066.43L1029.42 1066.3L1029.4 1066.18L1029.38 1066.05L1029.37 1065.93L1029.35 1065.8L1029.33 1065.68L1029.32 1065.56L1029.3 1065.43L1029.28 1065.31L1029.27 1065.19L1029.25 1065.06L1029.23 1064.94L1029.21 1064.82L1029.2 1064.69L1029.18 1064.57L1029.16 1064.45L1029.15 1064.32L1029.13 1064.2L1029.11 1064.08L1029.1 1063.96L1029.08 1063.83L1029.06 1063.71L1029.05 1063.59L1029.03 1063.47L1029.01 1063.35L1029 1063.23L1028.98 1063.1L1028.96 1062.98L1028.95 1062.86L1028.93 1062.74L1028.91 1062.62L1028.9 1062.5L1028.88 1062.38L1028.86 1062.26L1028.85 1062.14L1028.83 1062.02L1028.81 1061.9L1028.8 1061.78L1028.78 1061.66L1028.76 1061.54L1028.75 1061.43L1028.73 1061.31L1028.72 1061.19L1028.7 1061.07L1028.68 1060.95L1028.67 1060.83L1028.65 1060.72L1028.63 1060.6L1028.62 1060.48L1028.6 1060.37L1028.59 1060.25L1028.57 1060.13L1028.55 1060.02L1028.54 1059.9L1028.52 1059.78L1028.51 1059.67L1028.49 1059.55L1028.47 1059.44L1028.46 1059.32L1028.44 1059.21L1028.43 1059.1L1028.41 1058.98L1028.4 1058.87L1028.38 1058.75L1028.36 1058.64L1028.35 1058.53L1028.33 1058.42L1028.32 1058.3L1028.3 1058.19L1028.29 1058.08L1028.27 1057.97L1028.26 1057.86L1028.24 1057.74L1028.23 1057.63L1028.21 1057.52L1028.2 1057.41L1028.18 1057.3L1028.17 1057.19L1028.15 1057.08L1028.14 1056.97L1028.12 1056.87L1028.11 1056.76L1028.09 1056.65L1028.08 1056.54L1028.06 1056.43L1028.05 1056.33L1028.03 1056.22L1028.02 1056.11L1028 1056.01L1027.99 1055.9L1027.97 1055.79L1027.96 1055.69L1027.94 1055.58L1027.93 1055.48L1027.92 1055.38L1027.9 1055.27L1027.89 1055.17L1027.87 1055.06L1027.86 1054.96L1027.84 1054.86L1027.83 1054.76L1027.82 1054.66L1027.8 1054.55L1027.79 1054.45L1027.77 1054.35L1027.76 1054.25L1027.75 1054.15L1027.73 1054.05L1027.72 1053.95L1027.71 1053.85L1027.69 1053.75L1027.68 1053.66L1027.67 1053.56L1027.65 1053.46L1027.64 1053.36L1027.63 1053.27L1027.61 1053.17L1027.6 1053.08L1027.59 1052.98L1027.57 1052.89L1027.56 1052.79L1027.55 1052.7L1027.53 1052.6L1027.52 1052.51L1027.51 1052.42L1027.5 1052.32L1027.48 1052.23L1027.47 1052.14L1027.46 1052.05L1027.45 1051.96L1027.43 1051.87L1027.42 1051.78L1027.41 1051.69L1027.4 1051.6L1027.38 1051.51L1027.37 1051.42L1027.36 1051.33L1027.35 1051.25L1027.34 1051.16L1027.32 1051.07L1027.31 1050.99L1027.3 1050.9L1027.29 1050.82L1027.28 1050.73L1027.27 1050.65L1027.25 1050.57L1027.24 1050.48L1027.23 1050.4L1027.22 1050.32L1027.21 1050.24L1027.2 1050.15L1027.19 1050.07L1027.18 1049.99L1027.16 1049.91L1027.15 1049.84L1027.14 1049.76L1027.13 1049.68L1027.12 1049.6L1027.11 1049.52L1027.1 1049.45L1027.09 1049.37L1027.08 1049.29L1027.07 1049.22L1027.06 1049.15L1027.05 1049.07L1027.04 1049L1027.03 1048.92L1027.02 1048.85L1027.01 1048.78L1027 1048.71L1026.99 1048.64L1026.98 1048.57L1026.97 1048.5L1026.96 1048.43L1026.95 1048.36L1026.94 1048.29L1026.93 1048.22L1026.92 1048.16L1026.91 1048.09L1026.9 1048.02L1026.9 1047.96L1026.89 1047.89L1026.88 1047.83L1026.87 1047.77L1026.86 1047.7L1026.86 1047.69L1029.35 1047.35L1042.45 1045.54L1071.72 1041.52C1096.5 1038.11 1119.35 1055.43 1122.75 1080.21C1126.16 1104.99 1108.84 1127.83 1084.06 1131.24Z" fill="white" stroke="black" stroke-width="6"/>
<circle cx="1078.9" cy="1087.15" r="35.4508" transform="rotate(127.168 1078.9 1087.15)" fill="#64BDC2"/>
<path d="M1080.76 1071.93C1082.97 1071.93 1084.84 1072.31 1086.37 1073.06C1087.94 1073.8 1088.72 1074.76 1088.72 1075.91C1088.72 1076.42 1088.58 1076.86 1088.31 1077.24C1088.07 1077.61 1087.7 1077.8 1087.19 1077.8C1086.71 1077.8 1085.66 1077.42 1084.03 1076.68C1082.4 1075.89 1080.9 1075.5 1079.54 1075.5C1078.21 1075.5 1076.84 1075.93 1075.41 1076.78C1073.98 1077.63 1073.27 1078.67 1073.27 1079.89C1073.27 1081.56 1074.13 1082.78 1075.87 1083.56C1077.16 1084.14 1079.01 1084.67 1081.43 1085.14C1083.84 1085.58 1085.81 1086.52 1087.34 1087.95C1088.87 1089.34 1089.64 1091.47 1089.64 1094.32C1089.64 1098.67 1088.33 1101.89 1085.71 1103.96C1084.25 1105.12 1082.17 1105.7 1079.49 1105.7C1076.84 1105.7 1074.18 1104.96 1071.53 1103.5C1069.8 1102.58 1068.93 1101.67 1068.93 1100.75C1068.93 1100.41 1069.07 1100.03 1069.34 1099.63C1069.65 1099.22 1070.05 1098.88 1070.56 1098.61C1071.07 1098.33 1071.53 1098.3 1071.94 1098.5C1072.38 1098.67 1073.08 1099 1074.03 1099.47C1074.98 1099.95 1075.68 1100.27 1076.12 1100.44C1077.55 1100.99 1078.89 1101.26 1080.15 1101.26C1081.41 1101.26 1082.62 1100.65 1083.77 1099.42C1084.96 1098.16 1085.56 1096.63 1085.56 1094.83C1085.56 1092.45 1084.37 1090.79 1081.99 1089.83C1080.83 1089.36 1079.52 1089 1078.06 1088.76C1075.03 1088.22 1072.76 1087.32 1071.23 1086.06C1069.7 1084.77 1068.93 1082.83 1068.93 1080.25C1068.93 1077.66 1070.04 1075.64 1072.25 1074.18C1074.46 1072.68 1077.3 1071.93 1080.76 1071.93Z" fill="white"/>
</svg>
